<?xml version="1.0" encoding="UTF-8"?>
<svg version="1.1" xmlns="http://www.w3.org/2000/svg" width="1024" height="1024">
<path d="M0 0 C337.92 0 675.84 0 1024 0 C1024 337.92 1024 675.84 1024 1024 C686.08 1024 348.16 1024 0 1024 C0 686.08 0 348.16 0 0 Z " fill="#698C4C" transform="translate(0,0)"/>
<path d="M0 0 C0.90464745 0.00959118 1.80929489 0.01918236 2.7413559 0.02906418 C21.80208781 0.235111 40.86179155 0.51323158 59.921875 0.7734375 C59.921875 28.4934375 59.921875 56.2134375 59.921875 84.7734375 C87.641875 84.7734375 115.361875 84.7734375 143.921875 84.7734375 C143.921875 57.0534375 143.921875 29.3334375 143.921875 0.7734375 C172.301875 0.7734375 200.681875 0.7734375 229.921875 0.7734375 C229.921875 28.4934375 229.921875 56.2134375 229.921875 84.7734375 C258.301875 84.7734375 286.681875 84.7734375 315.921875 84.7734375 C315.921875 253.7334375 315.921875 422.6934375 315.921875 596.7734375 C287.541875 596.7734375 259.161875 596.7734375 229.921875 596.7734375 C229.921875 540.3434375 229.921875 483.9134375 229.921875 425.7734375 C201.541875 425.7734375 173.161875 425.7734375 143.921875 425.7734375 C144.251875 438.6434375 144.581875 451.5134375 144.921875 464.7734375 C144.93413634 472.63901742 144.9406736 480.49024998 144.8424263 488.35293579 C144.7978961 491.93104775 144.7627031 495.50917166 144.72909546 499.08740234 C144.67902141 504.34627692 144.62580237 509.60510792 144.5697937 514.86392212 C144.41677063 529.32313669 144.2945802 543.78262533 144.1796875 558.2421875 C144.17354801 559.00838984 144.16740852 559.77459218 144.16108298 560.56401277 C143.82215651 603.10508919 143.83546106 645.64658413 143.85785818 688.18874693 C143.85937999 691.09546753 143.86078739 694.00218817 143.86217117 696.90890884 C143.87362959 720.53042975 143.89409756 744.15193014 143.921875 767.7734375 C126.101875 767.7734375 108.281875 767.7734375 89.921875 767.7734375 C89.921875 763.4834375 89.921875 759.1934375 89.921875 754.7734375 C86.291875 754.7734375 82.661875 754.7734375 78.921875 754.7734375 C78.921875 750.1534375 78.921875 745.5334375 78.921875 740.7734375 C75.291875 740.7734375 71.661875 740.7734375 67.921875 740.7734375 C67.921875 735.8234375 67.921875 730.8734375 67.921875 725.7734375 C71.551875 725.7734375 75.181875 725.7734375 78.921875 725.7734375 C78.921875 720.8234375 78.921875 715.8734375 78.921875 710.7734375 C82.551875 710.7734375 86.181875 710.7734375 89.921875 710.7734375 C89.921875 703.5134375 89.921875 696.2534375 89.921875 688.7734375 C82.991875 688.7734375 76.061875 688.7734375 68.921875 688.7734375 C68.921875 694.7134375 68.921875 700.6534375 68.921875 706.7734375 C65.291875 706.7734375 61.661875 706.7734375 57.921875 706.7734375 C57.921875 711.0634375 57.921875 715.3534375 57.921875 719.7734375 C53.961875 719.7734375 50.001875 719.7734375 45.921875 719.7734375 C45.921875 715.4834375 45.921875 711.1934375 45.921875 706.7734375 C42.291875 706.7734375 38.661875 706.7734375 34.921875 706.7734375 C34.921875 700.8334375 34.921875 694.8934375 34.921875 688.7734375 C27.991875 688.7734375 21.061875 688.7734375 13.921875 688.7734375 C13.921875 696.0334375 13.921875 703.2934375 13.921875 710.7734375 C17.551875 710.7734375 21.181875 710.7734375 24.921875 710.7734375 C24.921875 715.7234375 24.921875 720.6734375 24.921875 725.7734375 C28.551875 725.7734375 32.181875 725.7734375 35.921875 725.7734375 C35.921875 730.3934375 35.921875 735.0134375 35.921875 739.7734375 C32.291875 739.7734375 28.661875 739.7734375 24.921875 739.7734375 C24.921875 744.7234375 24.921875 749.6734375 24.921875 754.7734375 C21.291875 754.7734375 17.661875 754.7734375 13.921875 754.7734375 C13.921875 759.0634375 13.921875 763.3534375 13.921875 767.7734375 C6.001875 767.7734375 -1.918125 767.7734375 -10.078125 767.7734375 C-10.078125 765.4634375 -10.078125 763.1534375 -10.078125 760.7734375 C-5.788125 760.7734375 -1.498125 760.7734375 2.921875 760.7734375 C2.921875 734.7034375 2.921875 708.6334375 2.921875 681.7734375 C-1.698125 681.7734375 -6.318125 681.7734375 -11.078125 681.7734375 C-11.078125 676.4934375 -11.078125 671.2134375 -11.078125 665.7734375 C-26.588125 665.7734375 -42.098125 665.7734375 -58.078125 665.7734375 C-58.078125 671.0534375 -58.078125 676.3334375 -58.078125 681.7734375 C-75.238125 682.1034375 -92.398125 682.4334375 -110.078125 682.7734375 C-110.408125 684.4234375 -110.738125 686.0734375 -111.078125 687.7734375 C-101.508125 687.7734375 -91.938125 687.7734375 -82.078125 687.7734375 C-82.078125 695.3634375 -82.078125 702.9534375 -82.078125 710.7734375 C-99.568125 710.7734375 -117.058125 710.7734375 -135.078125 710.7734375 C-135.078125 714.4034375 -135.078125 718.0334375 -135.078125 721.7734375 C-122.208125 721.7734375 -109.338125 721.7734375 -96.078125 721.7734375 C-96.078125 727.0534375 -96.078125 732.3334375 -96.078125 737.7734375 C-91.458125 737.7734375 -86.838125 737.7734375 -82.078125 737.7734375 C-82.078125 745.3634375 -82.078125 752.9534375 -82.078125 760.7734375 C-86.698125 760.7734375 -91.318125 760.7734375 -96.078125 760.7734375 C-96.078125 766.0534375 -96.078125 771.3334375 -96.078125 776.7734375 C-116.868125 776.7734375 -137.658125 776.7734375 -159.078125 776.7734375 C-159.078125 773.8034375 -159.078125 770.8334375 -159.078125 767.7734375 C-165.678125 767.7734375 -172.278125 767.7734375 -179.078125 767.7734375 C-179.078125 770.7434375 -179.078125 773.7134375 -179.078125 776.7734375 C-184.688125 776.7734375 -190.298125 776.7734375 -196.078125 776.7734375 C-196.078125 801.5234375 -196.078125 826.2734375 -196.078125 851.7734375 C-168.028125 851.7734375 -139.978125 851.7734375 -111.078125 851.7734375 C-111.078125 852.1034375 -111.078125 852.4334375 -111.078125 852.7734375 C-133.09571546 852.79676426 -155.1133039 852.81441558 -177.1309042 852.82524967 C-187.35330556 852.8304131 -197.57569926 852.8374567 -207.7980957 852.84887695 C-216.70455288 852.85882235 -225.61100451 852.86529058 -234.51746708 852.86752599 C-239.23641303 852.86883335 -243.9553431 852.87192074 -248.67428398 852.87916756 C-253.11058639 852.88592551 -257.5468663 852.88805492 -261.98317337 852.88654518 C-263.61627512 852.88682161 -265.24937758 852.88882807 -266.8824749 852.89264297 C-269.1023371 852.89757672 -271.32211296 852.89643699 -273.54197693 852.89369202 C-274.78731925 852.89461381 -276.03266157 852.8955356 -277.31574154 852.89648533 C-280.078125 852.7734375 -280.078125 852.7734375 -281.078125 851.7734375 C-281.17255835 849.47289915 -281.19554628 847.16941577 -281.19165039 844.86694336 C-281.19179642 844.14503311 -281.19194244 843.42312286 -281.1920929 842.67933655 C-281.19139369 840.28228803 -281.18360095 837.88531627 -281.17578125 835.48828125 C-281.1739171 833.83061261 -281.17249318 832.17294343 -281.17149353 830.51527405 C-281.16766812 826.14389536 -281.15783765 821.77254969 -281.14678955 817.40118408 C-281.13657592 812.94389289 -281.13199601 808.48659639 -281.12695312 804.02929688 C-281.1162154 795.27732857 -281.09913871 786.52538714 -281.078125 777.7734375 C-281.8302124 777.77867432 -282.5822998 777.78391113 -283.35717773 777.78930664 C-286.74331842 777.81000977 -290.12944584 777.82307627 -293.515625 777.8359375 C-294.69962891 777.84431641 -295.88363281 777.85269531 -297.10351562 777.86132812 C-298.22822266 777.86455078 -299.35292969 777.86777344 -300.51171875 777.87109375 C-301.55384521 777.87633057 -302.59597168 777.88156738 -303.66967773 777.88696289 C-306.078125 777.7734375 -306.078125 777.7734375 -307.078125 776.7734375 C-307.078125 773.8034375 -307.078125 770.8334375 -307.078125 767.7734375 C-318.628125 767.7734375 -330.178125 767.7734375 -342.078125 767.7734375 C-342.078125 770.7434375 -342.078125 773.7134375 -342.078125 776.7734375 C-358.248125 776.7734375 -374.418125 776.7734375 -391.078125 776.7734375 C-391.078125 773.8034375 -391.078125 770.8334375 -391.078125 767.7734375 C-410.218125 767.7734375 -429.358125 767.7734375 -449.078125 767.7734375 C-449.078125 770.7434375 -449.078125 773.7134375 -449.078125 776.7734375 C-456.338125 776.7734375 -463.598125 776.7734375 -471.078125 776.7734375 C-471.078125 760.2734375 -471.078125 743.7734375 -471.078125 726.7734375 C-475.698125 726.7734375 -480.318125 726.7734375 -485.078125 726.7734375 C-485.078125 719.5134375 -485.078125 712.2534375 -485.078125 704.7734375 C-480.128125 704.7734375 -475.178125 704.7734375 -470.078125 704.7734375 C-470.078125 696.8534375 -470.078125 688.9334375 -470.078125 680.7734375 C-465.788125 680.7734375 -461.498125 680.7734375 -457.078125 680.7734375 C-457.078125 675.4934375 -457.078125 670.2134375 -457.078125 664.7734375 C-442.558125 664.7734375 -428.038125 664.7734375 -413.078125 664.7734375 C-413.078125 670.3834375 -413.078125 675.9934375 -413.078125 681.7734375 C-369.518125 681.7734375 -325.958125 681.7734375 -281.078125 681.7734375 C-280.748125 667.2534375 -280.418125 652.7334375 -280.078125 637.7734375 C-290.23508435 637.48411364 -290.23508435 637.48411364 -300.39233398 637.20532227 C-301.64860596 637.16721436 -302.90487793 637.12910645 -304.19921875 637.08984375 C-305.4927124 637.05318604 -306.78620605 637.01652832 -308.11889648 636.97875977 C-311.078125 636.7734375 -311.078125 636.7734375 -312.078125 635.7734375 C-312.16603475 633.48192333 -312.18506538 631.18771226 -312.17578125 628.89453125 C-312.17328369 627.63825928 -312.17078613 626.3819873 -312.16821289 625.08764648 C-312.15910889 623.47833252 -312.15000488 621.86901855 -312.140625 620.2109375 C-312.12 615.1165625 -312.099375 610.0221875 -312.078125 604.7734375 C-322.308125 604.7734375 -332.538125 604.7734375 -343.078125 604.7734375 C-343.078125 594.5434375 -343.078125 584.3134375 -343.078125 573.7734375 C-353.638125 573.7734375 -364.198125 573.7734375 -375.078125 573.7734375 C-375.078125 563.2134375 -375.078125 552.6534375 -375.078125 541.7734375 C-385.308125 541.7734375 -395.538125 541.7734375 -406.078125 541.7734375 C-406.078125 531.2134375 -406.078125 520.6534375 -406.078125 509.7734375 C-416.308125 509.7734375 -426.538125 509.7734375 -437.078125 509.7734375 C-437.078125 434.8634375 -437.078125 359.9534375 -437.078125 282.7734375 C-426.848125 282.7734375 -416.618125 282.7734375 -406.078125 282.7734375 C-406.078125 272.2134375 -406.078125 261.6534375 -406.078125 250.7734375 C-395.41145833 250.7734375 -384.74479167 250.7734375 -374.078125 250.7734375 C-374.078125 240.5434375 -374.078125 230.3134375 -374.078125 219.7734375 C-371.438125 219.7734375 -368.798125 219.7734375 -366.078125 219.7734375 C-366.078125 203.6034375 -366.078125 187.4334375 -366.078125 170.7734375 C-348.258125 170.7734375 -330.438125 170.7734375 -312.078125 170.7734375 C-312.078125 162.8534375 -312.078125 154.9334375 -312.078125 146.7734375 C-322.308125 146.7734375 -332.538125 146.7734375 -343.078125 146.7734375 C-343.078125 136.2134375 -343.078125 125.6534375 -343.078125 114.7734375 C-332.518125 114.7734375 -321.958125 114.7734375 -311.078125 114.7734375 C-311.078125 125.0034375 -311.078125 135.2334375 -311.078125 145.7734375 C-306.6025 145.7528125 -302.126875 145.7321875 -297.515625 145.7109375 C-281.34609487 145.67517578 -265.2392077 146.17763722 -249.078125 146.7734375 C-249.078125 136.2134375 -249.078125 125.6534375 -249.078125 114.7734375 C-259.308125 114.7734375 -269.538125 114.7734375 -280.078125 114.7734375 C-280.078125 104.2134375 -280.078125 93.6534375 -280.078125 82.7734375 C-269.518125 82.7734375 -258.958125 82.7734375 -248.078125 82.7734375 C-248.078125 83.4334375 -248.078125 84.0934375 -248.078125 84.7734375 C-230.918125 84.7734375 -213.758125 84.7734375 -196.078125 84.7734375 C-196.078125 57.0534375 -196.078125 29.3334375 -196.078125 0.7734375 C-149.54644466 0.1550763 -149.54644466 0.1550763 -134.609375 0 C-133.61323685 -0.01034649 -132.61709869 -0.02069298 -131.59077454 -0.031353 C-87.72831277 -0.47886215 -43.86222495 -0.46524401 0 0 Z " fill="#698D4D" transform="translate(708.078125,86.2265625)"/>
<path d="M0 0 C21.12 0 42.24 0 64 0 C64 31.68 64 63.36 64 96 C53.77 96 43.54 96 33 96 C33 106.56 33 117.12 33 128 C22.44 128 11.88 128 1 128 C1 131.3 1 134.6 1 138 C21.79 138 42.58 138 64 138 C64 148.23 64 158.46 64 169 C74.23 169 84.46 169 95 169 C95 179.23 95 189.46 95 200 C105.56 200 116.12 200 127 200 C127 210.56 127 221.12 127 232 C137.23 232 147.46 232 158 232 C158 307.24 158 382.48 158 460 C147.77 460 137.54 460 127 460 C127 470.23 127 480.46 127 491 C116.44 491 105.88 491 95 491 C95 501.56 95 512.12 95 523 C84.77 523 74.54 523 64 523 C64 533.23 64 543.46 64 554 C53.77 554 43.54 554 33 554 C33 564.56 33 575.12 33 586 C11.88 586 -9.24 586 -31 586 C-31 575.44 -31 564.88 -31 554 C-63.67 554 -96.34 554 -130 554 C-130 564.56 -130 575.12 -130 586 C-145.68254445 586.04010881 -145.68254445 586.04010881 -152.34570312 586.04882812 C-156.89983275 586.05481573 -161.45394235 586.06191383 -166.00805664 586.07543945 C-169.67792544 586.0862712 -173.34777278 586.09227744 -177.01765633 586.09487724 C-178.42074992 586.09673097 -179.82384229 586.1003506 -181.2269268 586.10573006 C-183.1856968 586.11294419 -185.1444882 586.11340809 -187.10327148 586.11352539 C-188.22023911 586.115746 -189.33720673 586.11796661 -190.48802185 586.12025452 C-193 586 -193 586 -194 585 C-194.08790975 582.70848583 -194.10694038 580.41427476 -194.09765625 578.12109375 C-194.09515869 576.86482178 -194.09266113 575.6085498 -194.09008789 574.31420898 C-194.08098389 572.70489502 -194.07187988 571.09558105 -194.0625 569.4375 C-194.041875 564.343125 -194.02125 559.24875 -194 554 C-204.23 554 -214.46 554 -225 554 C-225 543.77 -225 533.54 -225 523 C-235.56 523 -246.12 523 -257 523 C-257 512.44 -257 501.88 -257 491 C-267.23 491 -277.46 491 -288 491 C-288 480.44 -288 469.88 -288 459 C-298.23 459 -308.46 459 -319 459 C-319 384.09 -319 309.18 -319 232 C-308.77 232 -298.54 232 -288 232 C-288 221.44 -288 210.88 -288 200 C-277.33333333 200 -266.66666667 200 -256 200 C-256 189.77 -256 179.54 -256 169 C-253.36 169 -250.72 169 -248 169 C-248 152.83 -248 136.66 -248 120 C-230.18 120 -212.36 120 -194 120 C-194 112.08 -194 104.16 -194 96 C-204.23 96 -214.46 96 -225 96 C-225 85.44 -225 74.88 -225 64 C-214.44 64 -203.88 64 -193 64 C-193 74.23 -193 84.46 -193 95 C-188.524375 94.979375 -184.04875 94.95875 -179.4375 94.9375 C-163.26796987 94.90173828 -147.1610827 95.40419972 -131 96 C-131 85.44 -131 74.88 -131 64 C-141.23 64 -151.46 64 -162 64 C-162 53.44 -162 42.88 -162 32 C-151.44 32 -140.88 32 -130 32 C-130 42.23 -130 52.46 -130 63 C-119.84286908 62.96040178 -119.84286908 62.96040178 -109.68579102 62.90991211 C-108.42951904 62.90741455 -107.17324707 62.90491699 -105.87890625 62.90234375 C-103.93866577 62.89448853 -103.93866577 62.89448853 -101.95922852 62.88647461 C-99 63 -99 63 -98 64 C-97.91161352 66.37541051 -97.88462477 68.7223358 -97.90234375 71.09765625 C-97.90484131 72.39453369 -97.90733887 73.69141113 -97.90991211 75.02758789 C-97.91901611 76.68910889 -97.92812012 78.35062988 -97.9375 80.0625 C-97.958125 85.321875 -97.97875 90.58125 -98 96 C-86.45 96 -74.9 96 -63 96 C-63 106.23 -63 116.46 -63 127 C-42.21 127 -21.42 127 0 127 C0 116.77 0 106.54 0 96 C0.33 95.67 0.66 95.34 1 95 C11.23 95 21.46 95 32 95 C32 74.21 32 53.42 32 32 C21.77 32 11.54 32 1 32 C1 42.56 1 53.12 1 64 C-9.56 64 -20.12 64 -31 64 C-31 74.23 -31 84.46 -31 95 C-41.23 95 -51.46 95 -62 95 C-62 84.44 -62 73.88 -62 63 C-51.77 63 -41.54 63 -31 63 C-31 52.44 -31 41.88 -31 31 C-20.77 31 -10.54 31 0 31 C0 20.77 0 10.54 0 0 Z " fill="#C6282E" transform="translate(590,137)"/>
<path d="M0 0 C281.16 0 562.32 0 852 0 C852 56.43 852 112.86 852 171 C823.62 171 795.24 171 766 171 C766 143.28 766 115.56 766 87 C737.62 87 709.24 87 680 87 C680 114.72 680 142.44 680 171 C652.28 171 624.56 171 596 171 C596 143.28 596 115.56 596 87 C511.52 87 427.04 87 340 87 C340 114.72 340 142.44 340 171 C322.84 171 305.68 171 288 171 C288 170.34 288 169.68 288 169 C277.44 169 266.88 169 256 169 C256 158.44 256 147.88 256 137 C224.65 137 193.3 137 161 137 C161 148.22 161 159.44 161 171 C136.25 171 111.5 171 86 171 C86 142.95 86 114.9 86 86 C57.62 86 29.24 86 0 86 C0 57.62 0 29.24 0 0 Z " fill="#749F51" transform="translate(172,0)"/>
<path d="M0 0 C9.24 0 18.48 0 28 0 C28 22.44 28 44.88 28 68 C16.78 68 5.56 68 -6 68 C-6 73.61 -6 79.22 -6 85 C-31.245 85.495 -31.245 85.495 -57 86 C-57.33 87.65 -57.66 89.3 -58 91 C-48.43 91 -38.86 91 -29 91 C-29 98.59 -29 106.18 -29 114 C-46.49 114 -63.98 114 -82 114 C-82 117.63 -82 121.26 -82 125 C-69.13 125 -56.26 125 -43 125 C-43 130.28 -43 135.56 -43 141 C-38.38 141 -33.76 141 -29 141 C-29 148.59 -29 156.18 -29 164 C-33.62 164 -38.24 164 -43 164 C-43 169.28 -43 174.56 -43 180 C-63.79 180 -84.58 180 -106 180 C-106 177.03 -106 174.06 -106 171 C-112.6 171 -119.2 171 -126 171 C-126 173.97 -126 176.94 -126 180 C-131.61 180 -137.22 180 -143 180 C-143 204.75 -143 229.5 -143 255 C-114.95 255 -86.9 255 -58 255 C-58 255.33 -58 255.66 -58 256 C-80.01759046 256.02332676 -102.0351789 256.04097808 -124.0527792 256.05181217 C-134.27518056 256.0569756 -144.49757426 256.0640192 -154.7199707 256.07543945 C-163.62642788 256.08538485 -172.53287951 256.09185308 -181.43934208 256.09408849 C-186.15828803 256.09539585 -190.8772181 256.09848324 -195.59615898 256.10573006 C-200.03246139 256.11248801 -204.4687413 256.11461742 -208.90504837 256.11310768 C-210.53815012 256.11338411 -212.17125258 256.11539057 -213.8043499 256.11920547 C-216.0242121 256.12413922 -218.24398796 256.12299949 -220.46385193 256.12025452 C-221.70919425 256.12117631 -222.95453657 256.1220981 -224.23761654 256.12304783 C-227 256 -227 256 -228 255 C-228.09443335 252.69946165 -228.11742128 250.39597827 -228.11352539 248.09350586 C-228.11367142 247.37159561 -228.11381744 246.64968536 -228.1139679 245.90589905 C-228.11326869 243.50885053 -228.10547595 241.11187877 -228.09765625 238.71484375 C-228.0957921 237.05717511 -228.09436818 235.39950593 -228.09336853 233.74183655 C-228.08954312 229.37045786 -228.07971265 224.99911219 -228.06866455 220.62774658 C-228.05845092 216.17045539 -228.05387101 211.71315889 -228.04882812 207.25585938 C-228.0380904 198.50389107 -228.02101371 189.75194964 -228 181 C-228.7520874 181.00523682 -229.5041748 181.01047363 -230.27905273 181.01586914 C-233.66519342 181.03657227 -237.05132084 181.04963877 -240.4375 181.0625 C-241.62150391 181.07087891 -242.80550781 181.07925781 -244.02539062 181.08789062 C-245.15009766 181.09111328 -246.27480469 181.09433594 -247.43359375 181.09765625 C-248.99678345 181.10551147 -248.99678345 181.10551147 -250.59155273 181.11352539 C-253 181 -253 181 -254 180 C-254 177.03 -254 174.06 -254 171 C-265.55 171 -277.1 171 -289 171 C-289 173.97 -289 176.94 -289 180 C-305.17 180 -321.34 180 -338 180 C-338 177.03 -338 174.06 -338 171 C-357.14 171 -376.28 171 -396 171 C-396 173.97 -396 176.94 -396 180 C-403.26 180 -410.52 180 -418 180 C-418 163.5 -418 147 -418 130 C-422.62 130 -427.24 130 -432 130 C-432 122.74 -432 115.48 -432 108 C-427.05 108 -422.1 108 -417 108 C-417 100.08 -417 92.16 -417 84 C-412.71 84 -408.42 84 -404 84 C-404 78.72 -404 73.44 -404 68 C-389.48 68 -374.96 68 -360 68 C-360 73.61 -360 79.22 -360 85 C-316.44 85 -272.88 85 -228 85 C-227.67 70.48 -227.34 55.96 -227 41 C-216.44 40.67 -205.88 40.34 -195 40 C-195 29.44 -195 18.88 -195 8 C-162.33 8 -129.66 8 -96 8 C-96 18.56 -96 29.12 -96 40 C-74.88 40 -53.76 40 -32 40 C-32 29.44 -32 18.88 -32 8 C-21.77 8 -11.54 8 -1 8 C-1 5.69 -1 3.38 -1 1 C-0.67 0.67 -0.34 0.34 0 0 Z " fill="#698D4E" transform="translate(655,683)"/>
<path d="M0 0 C0 28.05 0 56.1 0 85 C-15.51 85 -31.02 85 -47 85 C-47 79.39 -47 73.78 -47 68 C-61.52 68 -76.04 68 -91 68 C-91 73.28 -91 78.56 -91 84 C-95.29 84 -99.58 84 -104 84 C-104 91.92 -104 99.84 -104 108 C-108.95 108 -113.9 108 -119 108 C-119 115.26 -119 122.52 -119 130 C-114.38 130 -109.76 130 -105 130 C-105 146.5 -105 163 -105 180 C-97.74 180 -90.48 180 -83 180 C-83 177.03 -83 174.06 -83 171 C-63.86 171 -44.72 171 -25 171 C-25 173.97 -25 176.94 -25 180 C-9.16 180 6.68 180 23 180 C23 180.33 23 180.66 23 181 C15.08 181 7.16 181 -1 181 C-0.67 181.66 -0.34 182.32 0 183 C0.09214631 185.30787874 0.11749397 187.6185085 0.11352539 189.92822266 C0.11370619 191.01396859 0.11370619 191.01396859 0.11389065 192.12164879 C0.11314311 194.46915108 0.10552213 196.81657438 0.09765625 199.1640625 C0.09618634 200.61157188 0.09516593 202.05908178 0.09460449 203.5065918 C0.08935733 208.87940263 0.07539618 214.25220209 0.0625 219.625 C0.041875 231.62875 0.02125 243.6325 0 256 C28.05 256 56.1 256 85 256 C85 284.05 85 312.1 85 341 C29.23 341 -26.54 341 -84 341 C-84 312.62 -84 284.24 -84 255 C-112.38 255 -140.76 255 -170 255 C-170.33 227.28 -170.66 199.56 -171 171 C-198.59949699 171.03961615 -198.59949699 171.03961615 -226.19897461 171.09008789 C-231.52648926 171.09460449 -231.52648926 171.09460449 -234.01734924 171.09544373 C-235.76397455 171.09698335 -237.51059877 171.10050865 -239.25721741 171.10557556 C-241.89667621 171.11285244 -244.53606984 171.11390744 -247.17553711 171.11352539 C-248.35055361 171.11892255 -248.35055361 171.11892255 -249.54930782 171.12442875 C-254.88597366 171.11402634 -254.88597366 171.11402634 -256 170 C-256.09509559 167.38311559 -256.12556 164.792711 -256.11352539 162.17553711 C-256.11367142 161.35609116 -256.11381744 160.5366452 -256.1139679 159.69236755 C-256.11326852 156.97066647 -256.10547501 154.24903295 -256.09765625 151.52734375 C-256.09579216 149.64547259 -256.09436821 147.76360094 -256.09336853 145.88172913 C-256.08954267 140.91851471 -256.07971181 135.95532936 -256.06866455 130.99212646 C-256.0584519 125.93160394 -256.05387122 120.87107673 -256.04882812 115.81054688 C-256.0380896 105.87368512 -256.02101236 95.93684497 -256 86 C-254.40600121 86.00333092 -254.40600121 86.00333092 -252.77980042 86.00672913 C-242.78785109 86.02696002 -232.7959059 86.04197189 -222.80394077 86.05181217 C-217.66640434 86.05704113 -212.52888437 86.06413901 -207.39135742 86.07543945 C-202.4376859 86.08626787 -197.48403026 86.09227674 -192.53034782 86.09487724 C-190.63602384 86.09673157 -188.74170076 86.10035234 -186.8473835 86.10573006 C-184.20365614 86.11293989 -181.55999529 86.11399097 -178.91625977 86.11352539 C-177.72943352 86.1189183 -177.72943352 86.1189183 -176.51863098 86.12442017 C-172.96484445 86.44854895 -172.96484445 86.44854895 -170 85 C-169.90490441 82.38311559 -169.87444 79.792711 -169.88647461 77.17553711 C-169.88632858 76.35609116 -169.88618256 75.5366452 -169.8860321 74.69236755 C-169.88673148 71.97066647 -169.89452499 69.24903295 -169.90234375 66.52734375 C-169.90420784 64.64547259 -169.90563179 62.76360094 -169.90663147 60.88172913 C-169.91045733 55.91851471 -169.92028819 50.95532936 -169.93133545 45.99212646 C-169.9415481 40.93160394 -169.94612878 35.87107673 -169.95117188 30.81054688 C-169.9619104 20.87368512 -169.97898764 10.93684497 -170 1 C-158.35432817 0.82145298 -146.70849454 0.65605228 -135.0625 0.5 C-134.1766283 0.48812275 -133.29075661 0.4762455 -132.37804031 0.46400833 C-88.24928581 -0.12200923 -44.13373268 -0.06994252 0 0 Z " fill="#67894C" transform="translate(342,683)"/>
<path d="M0 0 C21.12 0 42.24 0 64 0 C64 31.68 64 63.36 64 96 C53.77 96 43.54 96 33 96 C33 106.56 33 117.12 33 128 C22.44 128 11.88 128 1 128 C1 131.3 1 134.6 1 138 C21.79 138 42.58 138 64 138 C64 148.23 64 158.46 64 169 C32.65 169 1.3 169 -31 169 C-31 179.56 -31 190.12 -31 201 C-64 201 -97 201 -131 201 C-131 190.44 -131 179.88 -131 169 C-162.02 169 -193.04 169 -225 169 C-225 179.23 -225 189.46 -225 200 C-235.23 200 -245.46 200 -256 200 C-256 189.77 -256 179.54 -256 169 C-253.36 169 -250.72 169 -248 169 C-248 152.83 -248 136.66 -248 120 C-230.18 120 -212.36 120 -194 120 C-194 112.08 -194 104.16 -194 96 C-204.23 96 -214.46 96 -225 96 C-225 85.44 -225 74.88 -225 64 C-214.44 64 -203.88 64 -193 64 C-193 74.23 -193 84.46 -193 95 C-188.524375 94.979375 -184.04875 94.95875 -179.4375 94.9375 C-163.26796987 94.90173828 -147.1610827 95.40419972 -131 96 C-131 85.44 -131 74.88 -131 64 C-141.23 64 -151.46 64 -162 64 C-162 53.44 -162 42.88 -162 32 C-151.44 32 -140.88 32 -130 32 C-130 42.23 -130 52.46 -130 63 C-119.84286908 62.96040178 -119.84286908 62.96040178 -109.68579102 62.90991211 C-108.42951904 62.90741455 -107.17324707 62.90491699 -105.87890625 62.90234375 C-103.93866577 62.89448853 -103.93866577 62.89448853 -101.95922852 62.88647461 C-99 63 -99 63 -98 64 C-97.91161352 66.37541051 -97.88462477 68.7223358 -97.90234375 71.09765625 C-97.90484131 72.39453369 -97.90733887 73.69141113 -97.90991211 75.02758789 C-97.91901611 76.68910889 -97.92812012 78.35062988 -97.9375 80.0625 C-97.958125 85.321875 -97.97875 90.58125 -98 96 C-86.45 96 -74.9 96 -63 96 C-63 106.23 -63 116.46 -63 127 C-42.21 127 -21.42 127 0 127 C0 116.77 0 106.54 0 96 C0.33 95.67 0.66 95.34 1 95 C11.23 95 21.46 95 32 95 C32 74.21 32 53.42 32 32 C21.77 32 11.54 32 1 32 C1 42.56 1 53.12 1 64 C-9.56 64 -20.12 64 -31 64 C-31 74.23 -31 84.46 -31 95 C-41.23 95 -51.46 95 -62 95 C-62 84.44 -62 73.88 -62 63 C-51.77 63 -41.54 63 -31 63 C-31 52.44 -31 41.88 -31 31 C-20.77 31 -10.54 31 0 31 C0 20.77 0 10.54 0 0 Z " fill="#693E25" transform="translate(590,137)"/>
<path d="M0 0 C28.05 0 56.1 0 85 0 C86.41640772 2.83281543 86.12727554 5.2046681 86.12939453 8.3737793 C86.13112419 9.03585577 86.13285385 9.69793224 86.13463593 10.38007164 C86.13903102 12.61147854 86.13602286 14.84281068 86.1328125 17.07421875 C86.13382995 18.6732943 86.13517046 20.27236967 86.1368103 21.8714447 C86.13954035 26.23236649 86.13498769 30.59325333 86.12857056 34.95417023 C86.12501017 37.67971401 86.12338236 40.40525252 86.12231445 43.13079834 C86.11170909 65.02439534 86.00162232 86.91616357 85.7734375 108.80859375 C85.76384632 109.7288994 85.75425514 110.64920506 85.74437332 111.59739876 C85.53397207 131.39871766 85.25799 151.19926718 85 171 C28.57 171 -27.86 171 -86 171 C-86 142.95 -86 114.9 -86 86 C-57.62 86 -29.24 86 0 86 C0 57.62 0 29.24 0 0 Z " fill="#76A252" transform="translate(86,341)"/>
<path d="M0 0 C56.1 0 112.2 0 170 0 C170 45.21 170 90.42 170 137 C167.03 137 164.06 137 161 137 C161 148.22 161 159.44 161 171 C136.25 171 111.5 171 86 171 C86 142.95 86 114.9 86 86 C57.62 86 29.24 86 0 86 C0 57.62 0 29.24 0 0 Z " fill="#76A252" transform="translate(172,0)"/>
<path d="M0 0 C9.24 0 18.48 0 28 0 C28 22.44 28 44.88 28 68 C16.78 68 5.56 68 -6 68 C-6 73.61 -6 79.22 -6 85 C-31.245 85.495 -31.245 85.495 -57 86 C-57.33 87.65 -57.66 89.3 -58 91 C-48.43 91 -38.86 91 -29 91 C-29 98.59 -29 106.18 -29 114 C-46.49 114 -63.98 114 -82 114 C-82 117.63 -82 121.26 -82 125 C-69.13 125 -56.26 125 -43 125 C-43 130.28 -43 135.56 -43 141 C-38.38 141 -33.76 141 -29 141 C-29 148.59 -29 156.18 -29 164 C-33.62 164 -38.24 164 -43 164 C-43 169.28 -43 174.56 -43 180 C-63.79 180 -84.58 180 -106 180 C-106 177.03 -106 174.06 -106 171 C-112.6 171 -119.2 171 -126 171 C-126 173.97 -126 176.94 -126 180 C-126.33 180 -126.66 180 -127 180 C-127 174.72 -127 169.44 -127 164 C-122.38 164 -117.76 164 -113 164 C-113 140.24 -113 116.48 -113 92 C-120.26 92 -127.52 92 -135 92 C-135 113.78 -135 135.56 -135 158 C-137.31 158 -139.62 158 -142 158 C-143 157 -143 157 -143.12304783 154.54996395 C-143.12212604 153.45210851 -143.12120424 152.35425306 -143.12025452 151.22312927 C-143.12162918 149.96804565 -143.12300385 148.71296204 -143.12442017 147.41984558 C-143.12088055 146.01614356 -143.11724574 144.61244178 -143.11352539 143.20874023 C-143.11324353 141.74063112 -143.11340124 140.27252187 -143.1139679 138.80441284 C-143.1142559 134.80665343 -143.10835874 130.80892376 -143.10139394 126.81117129 C-143.09516085 122.63779267 -143.09455664 118.46441344 -143.09336853 114.29103088 C-143.09025508 106.38267208 -143.08204151 98.47432703 -143.07201904 90.5659743 C-143.06085832 81.56491506 -143.05534756 72.56385518 -143.05032361 63.56279075 C-143.03985891 45.04185111 -143.02151326 26.52093033 -143 8 C-127.49 8 -111.98 8 -96 8 C-96 18.56 -96 29.12 -96 40 C-74.88 40 -53.76 40 -32 40 C-32 29.44 -32 18.88 -32 8 C-21.77 8 -11.54 8 -1 8 C-1 5.69 -1 3.38 -1 1 C-0.67 0.67 -0.34 0.34 0 0 Z " fill="#65854B" transform="translate(655,683)"/>
<path d="M0 0 C15.51 0 31.02 0 47 0 C47 5.28 47 10.56 47 16 C51.62 16 56.24 16 61 16 C61 42.07 61 68.14 61 95 C56.71 95 52.42 95 48 95 C48 97.31 48 99.62 48 102 C55.92 102 63.84 102 72 102 C72 97.71 72 93.42 72 89 C75.63 89 79.26 89 83 89 C83 84.05 83 79.1 83 74 C86.63 74 90.26 74 94 74 C94 69.38 94 64.76 94 60 C90.37 60 86.74 60 83 60 C83 55.05 83 50.1 83 45 C79.37 45 75.74 45 72 45 C72 37.74 72 30.48 72 23 C78.93 23 85.86 23 93 23 C93 28.94 93 34.88 93 41 C96.63 41 100.26 41 104 41 C104 45.29 104 49.58 104 54 C107.96 54 111.92 54 116 54 C116 49.71 116 45.42 116 41 C119.63 41 123.26 41 127 41 C127 35.06 127 29.12 127 23 C133.93 23 140.86 23 148 23 C148 30.26 148 37.52 148 45 C144.37 45 140.74 45 137 45 C137 49.95 137 54.9 137 60 C133.37 60 129.74 60 126 60 C126 64.95 126 69.9 126 75 C129.63 75 133.26 75 137 75 C137 79.62 137 84.24 137 89 C140.63 89 144.26 89 148 89 C148 96.26 148 103.52 148 111 C141.07 111 134.14 111 127 111 C127 105.06 127 99.12 127 93 C123.7 93 120.4 93 117 93 C117 88.71 117 84.42 117 80 C112.71 80 108.42 80 104 80 C104 84.29 104 88.58 104 93 C100.7 93 97.4 93 94 93 C94 95.97 94 98.94 94 102 C101.92 102 109.84 102 118 102 C118 129.72 118 157.44 118 186 C90.28 186 62.56 186 34 186 C33.38085433 175.47452355 32.85641129 165.16200539 32.90234375 154.65234375 C32.9037587 153.38902725 32.90517365 152.12571075 32.90663147 150.82411194 C32.91214667 146.86188194 32.924682 142.89971238 32.9375 138.9375 C32.94310365 136.22070459 32.94720081 133.50390761 32.95117188 130.78710938 C32.96122943 124.19136528 32.98082012 117.59574881 33 111 C22.11 111 11.22 111 0 111 C-0.33 105.72 -0.66 100.44 -1 95 C-5.29 95 -9.58 95 -14 95 C-14 68.93 -14 42.86 -14 16 C-9.38 16 -4.76 16 0 16 C0 10.72 0 5.44 0 0 Z " fill="#7AAB4E" transform="translate(650,752)"/>
<path d="M0 0 C8.58 0 17.16 0 26 0 C26 8.25 26 16.5 26 25 C23.03 25 20.06 25 17 25 C17 30.94 17 36.88 17 43 C22.61 43 28.22 43 34 43 C34 49.93 34 56.86 34 64 C41.26 64 48.52 64 56 64 C56 57.07 56 50.14 56 43 C61.61 43 67.22 43 73 43 C73 37.06 73 31.12 73 25 C70.03 25 67.06 25 64 25 C64 16.75 64 8.5 64 0 C72.58 0 81.16 0 90 0 C90 8.25 90 16.5 90 25 C87.36 25 84.72 25 82 25 C82 33.91 82 42.82 82 52 C76.39 52 70.78 52 65 52 C65 58.6 65 65.2 65 72 C62.03 72 59.06 72 56 72 C56 83.55 56 95.1 56 107 C59.63 107 63.26 107 67 107 C67 114.92 67 122.84 67 131 C61.06 131 55.12 131 49 131 C49 142.88 49 154.76 49 167 C53.29 167 57.58 167 62 167 C62 171.29 62 175.58 62 180 C57.71 180 53.42 180 49 180 C49 191.88 49 203.76 49 216 C55.27 216 61.54 216 68 216 C68 233.16 68 250.32 68 268 C71.3 268 74.6 268 78 268 C78 270.97 78 273.94 78 277 C71.73 277 65.46 277 59 277 C59 274.03 59 271.06 59 268 C56.03 268 53.06 268 50 268 C50 270.97 50 273.94 50 277 C47.03 277 44.06 277 41 277 C41 274.03 41 271.06 41 268 C38.03 268 35.06 268 32 268 C32 270.97 32 273.94 32 277 C26.06 277 20.12 277 14 277 C14 274.03 14 271.06 14 268 C16.97 268 19.94 268 23 268 C23 250.84 23 233.68 23 216 C8.48 216 -6.04 216 -21 216 C-21 211.71 -21 207.42 -21 203 C-25.29 203 -29.58 203 -34 203 C-34 176.6 -34 150.2 -34 123 C-32.02 123 -30.04 123 -28 123 C-28 121.02 -28 119.04 -28 117 C-43.84 117 -59.68 117 -76 117 C-76 119.64 -76 122.28 -76 125 C-84.58 125 -93.16 125 -102 125 C-102 116.75 -102 108.5 -102 100 C-93.42 100 -84.84 100 -76 100 C-76 102.64 -76 105.28 -76 108 C-63.79 108 -51.58 108 -39 108 C-39 102.39 -39 96.78 -39 91 C-48.57 91 -58.14 91 -68 91 C-68 82.42 -68 73.84 -68 65 C-59.75 65 -51.5 65 -43 65 C-43 70.61 -43 76.22 -43 82 C-38.71 82 -34.42 82 -30 82 C-30 90.58 -30 99.16 -30 108 C-26.7 108 -23.4 108 -20 108 C-20 108.66 -20 109.32 -20 110 C-5.48 110 9.04 110 24 110 C24 109.01 24 108.02 24 107 C27.63 107 31.26 107 35 107 C35 95.45 35 83.9 35 72 C31.7 72 28.4 72 25 72 C25 65.4 25 58.8 25 52 C19.39 52 13.78 52 8 52 C8 43.09 8 34.18 8 25 C5.36 25 2.72 25 0 25 C0 16.75 0 8.5 0 0 Z " fill="#C5262D" transform="translate(464,371)"/>
<path d="M0 0 C28.38 0 56.76 0 86 0 C86 56.43 86 112.86 86 171 C57.62 171 29.24 171 0 171 C0 114.57 0 58.14 0 0 Z " fill="#64854A" transform="translate(938,512)"/>
<path d="M0 0 C56.1 0 112.2 0 170 0 C170 28.38 170 56.76 170 86 C131.4434306 86.29107747 131.4434306 86.29107747 115.23046875 86.40429688 C104.05580066 86.48238414 92.88114871 86.56158615 81.70654297 86.64819336 C73.56651502 86.71127625 65.42646936 86.77045492 57.28637993 86.82505554 C52.98115427 86.85406678 48.67596159 86.88495814 44.37078476 86.92053413 C40.30792374 86.95404582 36.24505823 86.98228634 32.18213272 87.00670624 C30.70122153 87.0164959 29.22032094 87.02811354 27.73944092 87.04183006 C25.69493485 87.06047472 23.6504901 87.07211777 21.60592651 87.08229065 C20.46843397 87.09058679 19.33094143 87.09888292 18.15897942 87.10743046 C12.0967627 86.95083754 6.0488278 86.43205913 0 86 C0 57.62 0 29.24 0 0 Z " fill="#65864A" transform="translate(342,0)"/>
<path d="M0 0 C28.38 0 56.76 0 86 0 C86 56.43 86 112.86 86 171 C57.95 171 29.9 171 1 171 C0.74922556 138.88743796 0.74922556 138.88743796 0.64453125 125.17382812 C0.57292935 115.79662426 0.50106938 106.41942301 0.42724609 97.04223633 C0.37342346 90.20539574 0.32065878 83.36854784 0.26903296 76.5316903 C0.23725115 72.32797014 0.20464048 68.12425858 0.17052555 63.92055666 C0.00307779 42.61222403 0 21.31027521 0 0 Z " fill="#76A352" transform="translate(852,512)"/>
<path d="M0 0 C28.05 0 56.1 0 85 0 C85.25077444 32.44394255 85.25077444 32.44394255 85.35546875 46.27929688 C85.42712222 55.74666953 85.49902017 65.21403977 85.57275391 74.68139648 C85.62650689 81.58340805 85.67927258 88.48542643 85.73096704 95.38745373 C85.762814 99.63461908 85.795444 103.88177652 85.82947445 108.12892497 C85.98983353 128.75403409 86 149.37314758 86 170 C57.62 170 29.24 170 0 170 C0 113.9 0 57.8 0 0 Z " fill="#76A352" transform="translate(86,87)"/>
<path d="M0 0 C56.1 0 112.2 0 170 0 C170 28.05 170 56.1 170 85 C113.9 85 57.8 85 0 85 C0 56.95 0 28.9 0 0 Z " fill="#76A252" transform="translate(768,939)"/>
<path d="M0 0 C11.55 0 23.1 0 35 0 C35.495 4.455 35.495 4.455 36 9 C44.25 9.33 52.5 9.66 61 10 C61.33 34.42 61.66 58.84 62 84 C89.72 84.33 117.44 84.66 146 85 C146 113.05 146 141.1 146 170 C117.95 170 89.9 170 61 170 C61 141.95 61 113.9 61 85 C32.95 85 4.9 85 -24 85 C-24.33 60.25 -24.66 35.5 -25 10 C-17.08 9.67 -9.16 9.34 -1 9 C-0.67 6.03 -0.34 3.06 0 0 Z " fill="#77A353" transform="translate(366,854)"/>
<path d="M0 0 C10.23 0 20.46 0 31 0 C31 10.23 31 20.46 31 31 C41.56 31 52.12 31 63 31 C63 41.56 63 52.12 63 63 C73.23 63 83.46 63 94 63 C94 138.24 94 213.48 94 291 C83.77 291 73.54 291 63 291 C63 301.23 63 311.46 63 322 C52.44 322 41.88 322 31 322 C31 311.44 31 300.88 31 290 C41.23 290 51.46 290 62 290 C62 215.09 62 140.18 62 63 C51.77 63 41.54 63 31 63 C31 52.77 31 42.54 31 32 C20.77 32 10.54 32 0 32 C0 21.44 0 10.88 0 0 Z " fill="#060505" transform="translate(654,306)"/>
<path d="M0 0 C8.58 0 17.16 0 26 0 C26 8.25 26 16.5 26 25 C23.03 25 20.06 25 17 25 C17 30.94 17 36.88 17 43 C22.61 43 28.22 43 34 43 C34 49.93 34 56.86 34 64 C41.26 64 48.52 64 56 64 C56 57.07 56 50.14 56 43 C61.61 43 67.22 43 73 43 C73 37.06 73 31.12 73 25 C70.03 25 67.06 25 64 25 C64 16.75 64 8.5 64 0 C72.58 0 81.16 0 90 0 C90 8.25 90 16.5 90 25 C87.36 25 84.72 25 82 25 C82 33.91 82 42.82 82 52 C76.39 52 70.78 52 65 52 C65 58.6 65 65.2 65 72 C62.03 72 59.06 72 56 72 C56 83.55 56 95.1 56 107 C59.63 107 63.26 107 67 107 C67 114.92 67 122.84 67 131 C61.06 131 55.12 131 49 131 C49 142.88 49 154.76 49 167 C53.29 167 57.58 167 62 167 C62 171.29 62 175.58 62 180 C57.71 180 53.42 180 49 180 C49 191.88 49 203.76 49 216 C55.27 216 61.54 216 68 216 C68 233.16 68 250.32 68 268 C71.3 268 74.6 268 78 268 C78 270.97 78 273.94 78 277 C71.73 277 65.46 277 59 277 C59 274.03 59 271.06 59 268 C56.03 268 53.06 268 50 268 C50 270.97 50 273.94 50 277 C47.03 277 44.06 277 41 277 C41 274.03 41 271.06 41 268 C38.03 268 35.06 268 32 268 C32 270.97 32 273.94 32 277 C26.06 277 20.12 277 14 277 C14 274.03 14 271.06 14 268 C16.97 268 19.94 268 23 268 C23 250.84 23 233.68 23 216 C25.31 216 27.62 216 30 216 C30 211.71 30 207.42 30 203 C33.96 203 37.92 203 42 203 C42 176.6 42 150.2 42 123 C38.04 123 34.08 123 30 123 C30 118.71 30 114.42 30 110 C28.02 110 26.04 110 24 110 C24 109.01 24 108.02 24 107 C27.63 107 31.26 107 35 107 C35 95.45 35 83.9 35 72 C31.7 72 28.4 72 25 72 C25 65.4 25 58.8 25 52 C19.39 52 13.78 52 8 52 C8 43.09 8 34.18 8 25 C5.36 25 2.72 25 0 25 C0 16.75 0 8.5 0 0 Z " fill="#44BAD1" transform="translate(464,371)"/>
<path d="M0 0 C56.43 0 112.86 0 171 0 C171 28.38 171 56.76 171 86 C142.95 86 114.9 86 86 86 C86 57.95 86 29.9 86 1 C57.62 1 29.24 1 0 1 C0 0.67 0 0.34 0 0 Z " fill="#6C934F" transform="translate(0,512)"/>
<path d="M0 0 C28.38 0 56.76 0 86 0 C86 28.38 86 56.76 86 86 C57.62 86 29.24 86 0 86 C0 57.62 0 29.24 0 0 Z " fill="#65864A" transform="translate(938,0)"/>
<path d="M0 0 C28.38 0 56.76 0 86 0 C86 28.38 86 56.76 86 86 C57.62 86 29.24 86 0 86 C0 57.62 0 29.24 0 0 Z " fill="#76A252" transform="translate(0,0)"/>
<path d="M0 0 C28.38 0 56.76 0 86 0 C86 28.05 86 56.1 86 85 C57.62 85 29.24 85 0 85 C0 56.95 0 28.9 0 0 Z " fill="#76A252" transform="translate(0,939)"/>
<path d="M0 0 C28.38 0 56.76 0 86 0 C86 28.05 86 56.1 86 85 C57.62 85 29.24 85 0 85 C0 56.95 0 28.9 0 0 Z " fill="#65864A" transform="translate(938,769)"/>
<path d="M0 0 C28.38 0 56.76 0 86 0 C86 28.05 86 56.1 86 85 C57.62 85 29.24 85 0 85 C0 56.95 0 28.9 0 0 Z " fill="#76A252" transform="translate(938,683)"/>
<path d="M0 0 C28.38 0 56.76 0 86 0 C86 28.05 86 56.1 86 85 C57.62 85 29.24 85 0 85 C0 56.95 0 28.9 0 0 Z " fill="#76A252" transform="translate(938,427)"/>
<path d="M0 0 C28.38 0 56.76 0 86 0 C86 28.05 86 56.1 86 85 C57.62 85 29.24 85 0 85 C0 56.95 0 28.9 0 0 Z " fill="#64864A" transform="translate(938,342)"/>
<path d="M0 0 C28.38 0 56.76 0 86 0 C86 28.05 86 56.1 86 85 C57.62 85 29.24 85 0 85 C0 56.95 0 28.9 0 0 Z " fill="#65864A" transform="translate(938,172)"/>
<path d="M0 0 C28.05 0 56.1 0 85 0 C85 28.38 85 56.76 85 86 C56.95 86 28.9 86 0 86 C0 57.62 0 29.24 0 0 Z " fill="#77A353" transform="translate(512,0)"/>
<path d="M0 0 C1.18906905 0.00539716 1.18906905 0.00539716 2.40215969 0.01090336 C3.24481601 0.01078282 4.08747232 0.01066229 4.95566368 0.0105381 C7.69623759 0.01128733 10.43674436 0.01891598 13.17730618 0.0267725 C14.86411411 0.02824189 16.5509225 0.02926262 18.23773098 0.02982426 C24.50796089 0.03507749 30.77818106 0.04903857 37.04839993 0.06192875 C51.05277493 0.08255375 65.05714993 0.10317875 79.48589993 0.12442875 C79.48589993 28.17442875 79.48589993 56.22442875 79.48589993 85.12442875 C51.10589993 85.12442875 22.72589993 85.12442875 -6.51410007 85.12442875 C-6.53472507 71.28505375 -6.55535007 57.44567875 -6.57660007 43.18692875 C-6.58570408 38.81064213 -6.59480808 34.43435551 -6.60418797 29.92545414 C-6.60870457 24.59793949 -6.60870457 24.59793949 -6.6095438 22.10707951 C-6.61108343 20.3604542 -6.61460873 18.61382998 -6.61967564 16.86721134 C-6.62695252 14.22775254 -6.62800751 11.58835891 -6.62762547 8.94889164 C-6.63122357 8.1655473 -6.63482168 7.38220297 -6.63852882 6.57512093 C-6.62611464 0.20637034 -6.36212558 0.01225566 0 0 Z " fill="#77A353" transform="translate(177.51410007476807,938.8755712509155)"/>
<path d="M0 0 C28.05 0 56.1 0 85 0 C85 28.05 85 56.1 85 85 C56.95 85 28.9 85 0 85 C0 56.95 0 28.9 0 0 Z " fill="#66864B" transform="translate(512,939)"/>
<path d="M0 0 C28.05 0 56.1 0 85 0 C85 28.05 85 56.1 85 85 C56.95 85 28.9 85 0 85 C0 56.95 0 28.9 0 0 Z " fill="#66864B" transform="translate(86,939)"/>
<path d="M0 0 C28.05 0 56.1 0 85 0 C85 28.05 85 56.1 85 85 C56.95 85 28.9 85 0 85 C0 56.95 0 28.9 0 0 Z " fill="#76A353" transform="translate(853,769)"/>
<path d="M0 0 C28.05 0 56.1 0 85 0 C85 28.05 85 56.1 85 85 C56.95 85 28.9 85 0 85 C0 56.95 0 28.9 0 0 Z " fill="#65864A" transform="translate(853,683)"/>
<path d="M0 0 C28.05 0 56.1 0 85 0 C85 28.05 85 56.1 85 85 C56.95 85 28.9 85 0 85 C0 56.95 0 28.9 0 0 Z " fill="#76A252" transform="translate(86,683)"/>
<path d="M0 0 C28.05 0 56.1 0 85 0 C85 28.05 85 56.1 85 85 C56.95 85 28.9 85 0 85 C0 56.95 0 28.9 0 0 Z " fill="#76A353" transform="translate(853,342)"/>
<path d="M0 0 C28.05 0 56.1 0 85 0 C85 28.05 85 56.1 85 85 C56.95 85 28.9 85 0 85 C0 56.95 0 28.9 0 0 Z " fill="#76A353" transform="translate(853,172)"/>
<path d="M0 0 C28.38 0 56.76 0 86 0 C86 27.72 86 55.44 86 84 C57.62 84 29.24 84 0 84 C0 56.28 0 28.56 0 0 Z " fill="#76A252" transform="translate(938,854)"/>
<path d="M0 0 C28.38 0 56.76 0 86 0 C86 27.72 86 55.44 86 84 C57.62 84 29.24 84 0 84 C0 56.28 0 28.56 0 0 Z " fill="#76A253" transform="translate(938,257)"/>
<path d="M0 0 C0.80336918 -0.00012053 1.60673836 -0.00024107 2.43445206 -0.00036526 C5.02957192 0.00037989 7.62461958 0.00799 10.21972656 0.01586914 C11.82405564 0.01733979 13.42838519 0.01835974 15.03271484 0.0189209 C20.97526774 0.0241595 26.91781037 0.03812073 32.86035156 0.05102539 C46.14285156 0.07165039 59.42535156 0.09227539 73.11035156 0.11352539 C73.11035156 28.16352539 73.11035156 56.21352539 73.11035156 85.11352539 C45.06035156 85.11352539 17.01035156 85.11352539 -11.88964844 85.11352539 C-11.88964844 57.39352539 -11.88964844 29.67352539 -11.88964844 1.11352539 C-7.8110078 0.09386523 -4.15946353 -0.02010384 0 0 Z " fill="#65864A" transform="translate(864.8896484375,426.886474609375)"/>
<path d="M0 0 C0.02319031 10.19669169 0.0409492 20.39337709 0.05181217 30.5900898 C0.05702636 35.32504331 0.06409742 40.05997876 0.07543945 44.79492188 C0.08632037 49.36606905 0.09228788 53.93719887 0.09487724 58.508358 C0.09672211 60.25062203 0.10032465 61.99288513 0.10573006 63.73514175 C0.11300955 66.17908009 0.11398803 68.62294706 0.11352539 71.06689453 C0.11712067 71.78403122 0.12071594 72.50116791 0.12442017 73.24003601 C0.11601148 77.35650519 -0.31300023 80.87800141 -1 85 C-29.05 85 -57.1 85 -86 85 C-86 57.28 -86 29.56 -86 1 C-64.82700521 0.75043408 -64.82700521 0.75043408 -55.83398438 0.64453125 C-49.68644166 0.57213676 -43.5388991 0.4997292 -37.39135742 0.42724609 C-32.43768816 0.36884024 -27.48401823 0.31049108 -22.53034782 0.25218201 C-20.63602614 0.22987405 -18.7417047 0.20754532 -16.8473835 0.18519592 C-14.20367622 0.15400866 -11.5599681 0.12289385 -8.91625977 0.09179688 C-8.12504227 0.08244614 -7.33382477 0.0730954 -6.51863098 0.0634613 C-1.11405216 0 -1.11405216 0 0 0 Z " fill="#6C924F" transform="translate(86,256)"/>
<path d="M0 0 C28.05 0 56.1 0 85 0 C85 27.72 85 55.44 85 84 C56.95 84 28.9 84 0 84 C0 56.28 0 28.56 0 0 Z " fill="#65864A" transform="translate(853,854)"/>
<path d="M0 0 C28.05 0 56.1 0 85 0 C85 27.72 85 55.44 85 84 C56.95 84 28.9 84 0 84 C0 56.28 0 28.56 0 0 Z " fill="#77A353" transform="translate(86,854)"/>
<path d="M0 0 C28.05 0 56.1 0 85 0 C85 27.72 85 55.44 85 84 C56.95 84 28.9 84 0 84 C0 56.28 0 28.56 0 0 Z " fill="#65864B" transform="translate(0,854)"/>
<path d="M0 0 C27.72 0 55.44 0 84 0 C84 28.05 84 56.1 84 85 C56.28 85 28.56 85 0 85 C0 56.95 0 28.9 0 0 Z " fill="#65864A" transform="translate(768,598)"/>
<path d="M0 0 C27.72 0 55.44 0 84 0 C84 28.05 84 56.1 84 85 C56.28 85 28.56 85 0 85 C0 56.95 0 28.9 0 0 Z " fill="#65864A" transform="translate(768,342)"/>
<path d="M0 0 C28.05 0 56.1 0 85 0 C85 27.72 85 55.44 85 84 C56.95 84 28.9 84 0 84 C0 56.28 0 28.56 0 0 Z " fill="#65864A" transform="translate(853,257)"/>
<path d="M0 0 C28.05 0 56.1 0 85 0 C85 27.72 85 55.44 85 84 C56.95 84 28.9 84 0 84 C0 56.28 0 28.56 0 0 Z " fill="#65864A" transform="translate(853,87)"/>
<path d="M0 0 C27.72 0 55.44 0 84 0 C84 27.72 84 55.44 84 84 C56.28 84 28.56 84 0 84 C0 56.28 0 28.56 0 0 Z " fill="#77A353" transform="translate(768,684)"/>
<path d="M0 0 C27.72 0 55.44 0 84 0 C84 27.72 84 55.44 84 84 C56.28 84 28.56 84 0 84 C0 56.28 0 28.56 0 0 Z " fill="#77A352" transform="translate(768,257)"/>
<path d="M0 0 C10.23 0 20.46 0 31 0 C31 74.91 31 149.82 31 227 C20.77 227 10.54 227 0 227 C0 152.09 0 77.18 0 0 Z " fill="#060505" transform="translate(271,369)"/>
<path d="M0 0 C27.72 0 55.44 0 84 0 C84 27.72 84 55.44 84 84 C66.84 84 49.68 84 32 84 C32 83.34 32 82.68 32 82 C21.44 82 10.88 82 0 82 C-1.02090155 54.54909157 -0.74471748 27.47180044 0 0 Z " fill="#77A353" transform="translate(428,87)"/>
<path d="M0 0 C28.05 0 56.1 0 85 0 C85 16.17 85 32.34 85 49 C82.36 49 79.72 49 77 49 C77 59.23 77 69.46 77 80 C87.23 80 97.46 80 108 80 C108 80.33 108 80.66 108 81 C97.77 81 87.54 81 77 81 C77 91.23 77 101.46 77 112 C76.67 112 76.34 112 76 112 C76 101.44 76 90.88 76 80 C65.44 80 54.88 80 44 80 C44 81.32 44 82.64 44 84 C29.48 84 14.96 84 0 84 C0 56.28 0 28.56 0 0 Z " fill="#77A152" transform="translate(257,257)"/>
<path d="M0 0 C6.6 0 13.2 0 20 0 C20.495 4.455 20.495 4.455 21 9 C44.265 9.495 44.265 9.495 68 10 C68 34.42 68 58.84 68 84 C39.95 84 11.9 84 -17 84 C-17 59.25 -17 34.5 -17 9 C-11.39 9 -5.78 9 0 9 C0 6.03 0 3.06 0 0 Z " fill="#77A353" transform="translate(529,854)"/>
<path d="M0 0 C7.59 0 15.18 0 23 0 C23 2.64 23 5.28 23 8 C33.23 8 43.46 8 54 8 C54.33 18.23 54.66 28.46 55 39 C84.7 39.495 84.7 39.495 115 40 C115 40.33 115 40.66 115 41 C105.43 41 95.86 41 86 41 C86.01160156 44.00867188 86.02320313 47.01734375 86.03515625 50.1171875 C86.0429493 53.02294815 86.04902465 55.92870764 86.05493164 58.83447266 C86.05996831 60.85791543 86.06679789 62.88135456 86.07543945 64.90478516 C86.08753412 67.80892843 86.09323488 70.71302369 86.09765625 73.6171875 C86.10281754 74.52556366 86.10797882 75.43393982 86.11329651 76.36984253 C86.11337204 77.21056305 86.11344757 78.05128357 86.11352539 78.91748047 C86.115746 79.65916473 86.11796661 80.400849 86.12025452 81.16500854 C86 83 86 83 85 85 C56.95 85 28.9 85 0 85 C0 56.95 0 28.9 0 0 Z " fill="#77A253" transform="translate(342,683)"/>
<path d="M0 0 C15.51 0 31.02 0 47 0 C47 5.28 47 10.56 47 16 C51.62 16 56.24 16 61 16 C61 34.48 61 52.96 61 72 C56.38 72 51.76 72 47 72 C47 77.28 47 82.56 47 88 C31.16 88 15.32 88 -1 88 C-1 82.72 -1 77.44 -1 72 C-5.29 72 -9.58 72 -14 72 C-14 53.52 -14 35.04 -14 16 C-9.38 16 -4.76 16 0 16 C0 10.72 0 5.44 0 0 Z " fill="#152A4A" transform="translate(318,775)"/>
<path d="M0 0 C1.11696762 0.00222061 2.23393524 0.00444122 3.38475037 0.00672913 C4.64598221 0.00680466 5.90721405 0.00688019 7.20666504 0.00695801 C8.59341979 0.01206542 9.98017414 0.01728142 11.3669281 0.02259827 C12.77797394 0.0244625 14.18902042 0.02588638 15.60006714 0.02688599 C19.3204272 0.03071072 23.04074845 0.04054062 26.76109314 0.05158997 C31.22141976 0.06359991 35.68175933 0.06820654 40.14209747 0.07404327 C46.92409929 0.08375241 53.70601588 0.10290923 60.48802185 0.12025452 C60.48802185 10.68025452 60.48802185 21.24025452 60.48802185 32.12025452 C70.71802185 32.12025452 80.94802185 32.12025452 91.48802185 32.12025452 C91.48802185 52.58025452 91.48802185 73.04025452 91.48802185 94.12025452 C81.25802185 94.12025452 71.02802185 94.12025452 60.48802185 94.12025452 C60.48802185 83.89025452 60.48802185 73.66025452 60.48802185 63.12025452 C49.92802185 63.12025452 39.36802185 63.12025452 28.48802185 63.12025452 C28.48802185 52.89025452 28.48802185 42.66025452 28.48802185 32.12025452 C17.92802185 32.12025452 7.36802185 32.12025452 -3.51197815 32.12025452 C-3.53260315 27.02587952 -3.55322815 21.93150452 -3.57447815 16.68275452 C-3.58358215 15.07344055 -3.59268616 13.46412659 -3.60206604 11.80604553 C-3.6045636 10.54977356 -3.60706116 9.29350159 -3.6096344 7.99916077 C-3.61487122 6.70566711 -3.62010803 5.41217346 -3.62550354 4.07948303 C-3.47538431 0.16637512 -3.47538431 0.16637512 0 0 Z " fill="#E56B65" transform="translate(593.5119781494141,305.87974548339844)"/>
<path d="M0 0 C20.79 0 41.58 0 63 0 C63 10.56 63 21.12 63 32 C52.77 32 42.54 32 32 32 C32 42.23 32 52.46 32 63 C21.44 63 10.88 63 0 63 C0 73.23 0 83.46 0 94 C-10.23 94 -20.46 94 -31 94 C-31 73.54 -31 53.08 -31 32 C-20.77 32 -10.54 32 0 32 C0 21.44 0 10.88 0 0 Z " fill="#E66F69" transform="translate(365,306)"/>
<path d="M0 0 C20.46 0 40.92 0 62 0 C62 7.26 62 14.52 62 22 C44.51 22 27.02 22 9 22 C9 25.63 9 29.26 9 33 C21.87 33 34.74 33 48 33 C48 38.28 48 43.56 48 49 C52.62 49 57.24 49 62 49 C62 56.59 62 64.18 62 72 C57.38 72 52.76 72 48 72 C48 77.28 48 82.56 48 88 C27.54 88 7.08 88 -14 88 C-14 81.07 -14 74.14 -14 67 C3.82 67 21.64 67 40 67 C40 63.04 40 59.08 40 55 C26.8 55 13.6 55 0 55 C0 49.72 0 44.44 0 39 C-4.62 39 -9.24 39 -14 39 C-14 31.41 -14 23.82 -14 16 C-9.38 16 -4.76 16 0 16 C0 10.72 0 5.44 0 0 Z " fill="#152A4A" transform="translate(564,775)"/>
<path d="M0 0 C16.83 0 33.66 0 51 0 C51 56.43 51 112.86 51 171 C44.4 171 37.8 171 31 171 C31 123.81 31 76.62 31 28 C20.77 28 10.54 28 0 28 C0 18.76 0 9.52 0 0 Z " fill="#77A352" transform="translate(717,341)"/>
<path d="M0 0 C10.56 0 21.12 0 32 0 C32 10.56 32 21.12 32 32 C21.77 32 11.54 32 1 32 C1 42.23 1 52.46 1 63 C-9.23 63 -19.46 63 -30 63 C-30 73.56 -30 84.12 -30 95 C-51.12 95 -72.24 95 -94 95 C-94 84.44 -94 73.88 -94 63 C-73.21 63 -52.42 63 -31 63 C-31 52.44 -31 41.88 -31 31 C-20.77 31 -10.54 31 0 31 C0 20.77 0 10.54 0 0 Z " fill="#070606" transform="translate(653,628)"/>
<path d="M0 0 C7.26 0 14.52 0 22 0 C22 21.78 22 43.56 22 66 C31.9 66 41.8 66 52 66 C52 44.22 52 22.44 52 0 C59.26 0 66.52 0 74 0 C74 23.76 74 47.52 74 72 C69.38 72 64.76 72 60 72 C60 77.28 60 82.56 60 88 C44.82 88 29.64 88 14 88 C14 82.72 14 77.44 14 72 C9.38 72 4.76 72 0 72 C0 48.24 0 24.48 0 0 Z " fill="#152A4A" transform="translate(468,775)"/>
<path d="M0 0 C8.58 0 17.16 0 26 0 C26 8.25 26 16.5 26 25 C23.03 25 20.06 25 17 25 C17 30.61 17 36.22 17 42 C9.41 42 1.82 42 -6 42 C-6 57.84 -6 73.68 -6 90 C-0.39 90 5.22 90 11 90 C11 86.04 11 82.08 11 78 C14.3 78 17.6 78 21 78 C21 69.42 21 60.84 21 52 C24.96 52 28.92 52 33 52 C33 46.39 33 40.78 33 35 C41.25 35 49.5 35 58 35 C58 43.58 58 52.16 58 61 C48.76 61 39.52 61 30 61 C30 66.61 30 72.22 30 78 C42.21 78 54.42 78 67 78 C67 75.36 67 72.72 67 70 C75.58 70 84.16 70 93 70 C93 78.25 93 86.5 93 95 C84.42 95 75.84 95 67 95 C67 92.36 67 89.72 67 87 C51.49 87 35.98 87 20 87 C20 90.96 20 94.92 20 99 C11.42 99 2.84 99 -6 99 C-6 105.27 -6 111.54 -6 118 C-11.28 118 -16.56 118 -22 118 C-22 114.7 -22 111.4 -22 108 C-19.69 108 -17.38 108 -15 108 C-15 83.58 -15 59.16 -15 34 C-7.08 34 0.84 34 9 34 C9 31.03 9 28.06 9 25 C6.03 25 3.06 25 0 25 C0 16.75 0 8.5 0 0 Z " fill="#49B9CF" transform="translate(564,401)"/>
<path d="M0 0 C14.52 0 29.04 0 44 0 C44 6.93 44 13.86 44 21 C32.12 21 20.24 21 8 21 C8 27.27 8 33.54 8 40 C19.55 40 31.1 40 43 40 C43 46.93 43 53.86 43 61 C31.45 61 19.9 61 8 61 C8 77.83 8 94.66 8 112 C0.74 112 -6.52 112 -14 112 C-14 95.5 -14 79 -14 62 C-18.62 62 -23.24 62 -28 62 C-28 54.74 -28 47.48 -28 40 C-23.05 40 -18.1 40 -13 40 C-13 32.08 -13 24.16 -13 16 C-8.71 16 -4.42 16 0 16 C0 10.72 0 5.44 0 0 Z " fill="#152A4B" transform="translate(251,751)"/>
<path d="M0 0 C6.93 0 13.86 0 21 0 C21 5.94 21 11.88 21 18 C24.63 18 28.26 18 32 18 C32 22.29 32 26.58 32 31 C35.96 31 39.92 31 44 31 C44 26.71 44 22.42 44 18 C47.63 18 51.26 18 55 18 C55 12.06 55 6.12 55 0 C61.93 0 68.86 0 76 0 C76 7.26 76 14.52 76 22 C72.37 22 68.74 22 65 22 C65 26.95 65 31.9 65 37 C61.37 37 57.74 37 54 37 C54 41.95 54 46.9 54 52 C57.63 52 61.26 52 65 52 C65 56.62 65 61.24 65 66 C68.63 66 72.26 66 76 66 C76 73.26 76 80.52 76 88 C69.07 88 62.14 88 55 88 C55 82.06 55 76.12 55 70 C51.7 70 48.4 70 45 70 C45 65.71 45 61.42 45 57 C40.71 57 36.42 57 32 57 C32 61.29 32 65.58 32 70 C28.37 70 24.74 70 21 70 C21 75.94 21 81.88 21 88 C14.07 88 7.14 88 0 88 C0 80.74 0 73.48 0 66 C3.63 66 7.26 66 11 66 C11 61.05 11 56.1 11 51 C14.63 51 18.26 51 22 51 C22 46.38 22 41.76 22 37 C18.37 37 14.74 37 11 37 C11 32.05 11 27.1 11 22 C7.37 22 3.74 22 0 22 C0 14.74 0 7.48 0 0 Z " fill="#7FB648" transform="translate(722,775)"/>
<path d="M0 0 C20.46 0 40.92 0 62 0 C62 31.02 62 62.04 62 94 C52.1 94 42.2 94 32 94 C32 72.88 32 51.76 32 30 C21.44 30 10.88 30 0 30 C0 20.1 0 10.2 0 0 Z " fill="#050505" transform="translate(591,138)"/>
<path d="M0 0 C19.14 0 38.28 0 58 0 C58 7.26 58 14.52 58 22 C41.83 22 25.66 22 9 22 C9 36.52 9 51.04 9 66 C24.84 66 40.68 66 57 66 C57 73.26 57 80.52 57 88 C38.19 88 19.38 88 0 88 C0 82.72 0 77.44 0 72 C-4.62 72 -9.24 72 -14 72 C-14 53.52 -14 35.04 -14 16 C-9.38 16 -4.76 16 0 16 C0 10.72 0 5.44 0 0 Z " fill="#162B49" transform="translate(402,775)"/>
<path d="M0 0 C21.12 0 42.24 0 64 0 C64 3.3 64 6.6 64 10 C84.79 10 105.58 10 127 10 C127 20.23 127 30.46 127 41 C95.65 41 64.3 41 32 41 C32 31.76 32 22.52 32 13 C21.44 13 10.88 13 0 13 C0 8.71 0 4.42 0 0 Z " fill="#070606" transform="translate(527,265)"/>
<path d="M0 0 C20.79 0 41.58 0 63 0 C63 4.29 63 8.58 63 13 C52.44 13 41.88 13 31 13 C31 22.24 31 31.48 31 41 C-0.02 41 -31.04 41 -63 41 C-63 30.77 -63 20.54 -63 10 C-42.21 10 -21.42 10 0 10 C0 6.7 0 3.4 0 0 Z " fill="#070706" transform="translate(428,265)"/>
<path d="M0 0 C15.51 0 31.02 0 47 0 C47 1.98 47 3.96 47 6 C39.08 6 31.16 6 23 6 C23 11.61 23 17.22 23 23 C18.38 23 13.76 23 9 23 C9 41.48 9 59.96 9 79 C13.29 79 17.58 79 22 79 C22 81.31 22 83.62 22 86 C2.86 86 -16.28 86 -36 86 C-36 72.14 -36 58.28 -36 44 C-24.45 44 -12.9 44 -1 44 C-1 37.07 -1 30.14 -1 23 C-12.55 23 -24.1 23 -36 23 C-36 16.73 -36 10.46 -36 4 C-24.12 4 -12.24 4 0 4 C0 2.68 0 1.36 0 0 Z " fill="#75A153" transform="translate(295,768)"/>
<path d="M0 0 C10.23 0 20.46 0 31 0 C31 10.23 31 20.46 31 31 C41.56 31 52.12 31 63 31 C63 116.47 63 201.94 63 290 C72.9 290 82.8 290 93 290 C93 215.09 93 140.18 93 63 C93.33 63 93.66 63 94 63 C94 138.24 94 213.48 94 291 C83.77 291 73.54 291 63 291 C63 301.23 63 311.46 63 322 C52.44 322 41.88 322 31 322 C31 311.44 31 300.88 31 290 C41.23 290 51.46 290 62 290 C62 215.09 62 140.18 62 63 C51.77 63 41.54 63 31 63 C31 52.77 31 42.54 31 32 C20.77 32 10.54 32 0 32 C0 21.44 0 10.88 0 0 Z " fill="#241510" transform="translate(654,306)"/>
<path d="M0 0 C32.67 0 65.34 0 99 0 C99 10.56 99 21.12 99 32 C66.33 32 33.66 32 0 32 C0 21.44 0 10.88 0 0 Z " fill="#0B0807" transform="translate(460,659)"/>
<path d="M0 0 C10.56 0 21.12 0 32 0 C32 10.23 32 20.46 32 31 C42.23 31 52.46 31 63 31 C63 31.33 63 31.66 63 32 C52.77 32 42.54 32 32 32 C32 42.56 32 53.12 32 64 C42.23 64 52.46 64 63 64 C63 74.23 63 84.46 63 95 C42.21 95 21.42 95 0 95 C0 84.77 0 74.54 0 64 C10.23 64 20.46 64 31 64 C31 53.44 31 42.88 31 32 C20.77 32 10.54 32 0 32 C0 21.44 0 10.88 0 0 Z " fill="#547F3F" transform="translate(428,169)"/>
<path d="M0 0 C31.35 0 62.7 0 95 0 C95 10.56 95 21.12 95 32 C63.65 32 32.3 32 0 32 C0 21.44 0 10.88 0 0 Z " fill="#090A08" transform="translate(333,137)"/>
<path d="M0 0 C10.23 0 20.46 0 31 0 C31 20.79 31 41.58 31 63 C-4.6404321 64.14969136 -4.6404321 64.14969136 -17.9375 64.0625 C-24.8984375 64.0315625 -24.8984375 64.0315625 -32 64 C-32 53.44 -32 42.88 -32 32 C-21.44 32 -10.88 32 0 32 C0 21.44 0 10.88 0 0 Z " fill="#79AD48" transform="translate(591,169)"/>
<path d="M0 0 C17.82 0 35.64 0 54 0 C54 2.64 54 5.28 54 8 C64.56 8 75.12 8 86 8 C86 11.3 86 14.6 86 18 C65.21 18 44.42 18 23 18 C23 38.46 23 58.92 23 80 C12.77 80 2.54 80 -8 80 C-8 69.77 -8 59.54 -8 49 C-5.36 49 -2.72 49 0 49 C0 32.83 0 16.66 0 0 Z " fill="#65854A" transform="translate(342,257)"/>
<path d="M0 0 C10.23 0 20.46 0 31 0 C31 10.56 31 21.12 31 32 C41.23 32 51.46 32 62 32 C62 42.56 62 53.12 62 64 C57.524375 64.020625 53.04875 64.04125 48.4375 64.0625 C46.43320923 64.07615601 46.43320923 64.07615601 44.38842773 64.09008789 C29.5606403 64.12143628 14.8551259 63.47919761 0 63 C0 42.21 0 21.42 0 0 Z " fill="#79AD48" transform="translate(397,169)"/>
<path d="M0 0 C5.61 0 11.22 0 17 0 C17 6.93 17 13.86 17 21 C26.24 21 35.48 21 45 21 C45 14.07 45 7.14 45 0 C50.61 0 56.22 0 62 0 C62 7.92 62 15.84 62 24 C57.38 24 52.76 24 48 24 C48 32.25 48 40.5 48 49 C52.62 49 57.24 49 62 49 C62 56.92 62 64.84 62 73 C56.06 73 50.12 73 44 73 C44 66.07 44 59.14 44 52 C35.09 52 26.18 52 17 52 C17 58.93 17 65.86 17 73 C11.39 73 5.78 73 0 73 C0 64.75 0 56.5 0 48 C3.96 48 7.92 48 12 48 C12 40.08 12 32.16 12 24 C8.04 24 4.08 24 0 24 C0 16.08 0 8.16 0 0 Z " fill="#C5252D" transform="translate(519,508)"/>
<path d="M0 0 C9.57 0 19.14 0 29 0 C29 5.61 29 11.22 29 17 C34.28 17 39.56 17 45 17 C45 11.39 45 5.78 45 0 C54.57 0 64.14 0 74 0 C74 11.88 74 23.76 74 36 C69.38 36 64.76 36 60 36 C60 38.64 60 41.28 60 44 C62.64 44 65.28 44 68 44 C68 45.98 68 47.96 68 50 C69.98 50 71.96 50 74 50 C74 61.55 74 73.1 74 85 C64.1 85 54.2 85 44 85 C44 78.07 44 71.14 44 64 C39.05 64 34.1 64 29 64 C29 70.93 29 77.86 29 85 C19.43 85 9.86 85 0 85 C0 73.12 0 61.24 0 49 C4.29 49 8.58 49 13 49 C13 44.71 13 40.42 13 36 C8.71 36 4.42 36 0 36 C0 24.12 0 12.24 0 0 Z M6 6 C6 13.92 6 21.84 6 30 C9.96 30 13.92 30 18 30 C18 37.92 18 45.84 18 54 C14.04 54 10.08 54 6 54 C6 62.25 6 70.5 6 79 C11.61 79 17.22 79 23 79 C23 72.07 23 65.14 23 58 C31.91 58 40.82 58 50 58 C50 64.93 50 71.86 50 79 C55.94 79 61.88 79 68 79 C68 71.08 68 63.16 68 55 C63.38 55 58.76 55 54 55 C54 46.75 54 38.5 54 30 C58.62 30 63.24 30 68 30 C68 22.08 68 14.16 68 6 C62.39 6 56.78 6 51 6 C51 12.93 51 19.86 51 27 C41.76 27 32.52 27 23 27 C23 20.07 23 13.14 23 6 C17.39 6 11.78 6 6 6 Z " fill="#0E0A09" transform="translate(513,502)"/>
<path d="M0 0 C10.23 0 20.46 0 31 0 C31 6.6 31 13.2 31 20 C42.88 20 54.76 20 67 20 C67 13.4 67 6.8 67 0 C77.56 0 88.12 0 99 0 C99 10.23 99 20.46 99 31 C66.33 31 33.66 31 0 31 C0 20.77 0 10.54 0 0 Z " fill="#070706" transform="translate(460,306)"/>
<path d="M0 0 C8.25 0 16.5 0 25 0 C25 5.61 25 11.22 25 17 C29.29 17 33.58 17 38 17 C38 25.58 38 34.16 38 43 C41.3 43 44.6 43 48 43 C47.67 47.95 47.34 52.9 47 58 C44.69 58 42.38 58 40 58 C40 56.02 40 54.04 40 52 C24.16 52 8.32 52 -8 52 C-8 54.64 -8 57.28 -8 60 C-16.58 60 -25.16 60 -34 60 C-34 51.75 -34 43.5 -34 35 C-25.42 35 -16.84 35 -8 35 C-8 37.64 -8 40.28 -8 43 C4.21 43 16.42 43 29 43 C29 37.39 29 31.78 29 26 C19.43 26 9.86 26 0 26 C0 17.42 0 8.84 0 0 Z " fill="#4AB8CD" transform="translate(396,436)"/>
<path d="M0 0 C16.83 0 33.66 0 51 0 C51 4.29 51 8.58 51 13 C54.96 13 58.92 13 63 13 C63 39.4 63 65.8 63 93 C59.04 93 55.08 93 51 93 C51 97.29 51 101.58 51 106 C34.17 106 17.34 106 0 106 C0 101.71 0 97.42 0 93 C-4.29 93 -8.58 93 -13 93 C-13 66.6 -13 40.2 -13 13 C-8.71 13 -4.42 13 0 13 C0 8.71 0 4.42 0 0 Z M6 6 C6 10.29 6 14.58 6 19 C1.71 19 -2.58 19 -7 19 C-7 41.44 -7 63.88 -7 87 C-2.71 87 1.58 87 6 87 C6 91.29 6 95.58 6 100 C18.54 100 31.08 100 44 100 C44 95.71 44 91.42 44 87 C48.29 87 52.58 87 57 87 C57 64.56 57 42.12 57 19 C53.04 19 49.08 19 45 19 C45 14.71 45 10.42 45 6 C32.13 6 19.26 6 6 6 Z " fill="#100A0A" transform="translate(443,481)"/>
<path d="M0 0 C0.33 0 0.66 0 1 0 C1 10.23 1 20.46 1 31 C5.475625 30.979375 9.95125 30.95875 14.5625 30.9375 C30.73203013 30.90173828 46.8389173 31.40419972 63 32 C63 42.23 63 52.46 63 63 C42.21 63 21.42 63 0 63 C0 42.21 0 21.42 0 0 Z " fill="#547F3F" transform="translate(527,201)"/>
<path d="M0 0 C10.23 0 20.46 0 31 0 C31 21.45 31 42.9 31 65 C20.77 65 10.54 65 0 65 C0 43.55 0 22.1 0 0 Z " fill="#6D9450" transform="translate(658,775)"/>
<path d="M0 0 C20.79 0 41.58 0 63 0 C63 10.23 63 20.46 63 31 C42.21 31 21.42 31 0 31 C0 20.77 0 10.54 0 0 Z " fill="#070606" transform="translate(559,691)"/>
<path d="M0 0 C20.46 0 40.92 0 62 0 C62 10.23 62 20.46 62 31 C41.54 31 21.08 31 0 31 C0 20.77 0 10.54 0 0 Z " fill="#070606" transform="translate(397,691)"/>
<path d="M0 0 C8.58 0 17.16 0 26 0 C26 17.82 26 35.64 26 54 C17.42 54 8.84 54 0 54 C0 36.18 0 18.36 0 0 Z " fill="#0B0A09" transform="translate(455,507)"/>
<path d="M0 0 C10.23 0 20.46 0 31 0 C31 14.52 31 29.04 31 44 C20.77 44 10.54 44 0 44 C0 29.48 0 14.96 0 0 Z " fill="#75A053" transform="translate(326,797)"/>
<path d="M0 0 C0.33 0 0.66 0 1 0 C1 74.91 1 149.82 1 227 C11.23 227 21.46 227 32 227 C32 237.56 32 248.12 32 259 C31.67 259 31.34 259 31 259 C31 248.77 31 238.54 31 228 C16.81 228.33 2.62 228.66 -12 229 C-12 200.62 -12 172.24 -12 143 C-8.04 143 -4.08 143 0 143 C0 95.81 0 48.62 0 0 Z " fill="#5E7E45" transform="translate(270,369)"/>
<path d="M0 0 C8.25 0 16.5 0 25 0 C25 8.25 25 16.5 25 25 C22.03 25 19.06 25 16 25 C16 27.97 16 30.94 16 34 C23.92 34 31.84 34 40 34 C40 49.18 40 64.36 40 80 C37.36 80 34.72 80 32 80 C32 67.46 32 54.92 32 42 C24.08 42 16.16 42 8 42 C8 36.39 8 30.78 8 25 C5.36 25 2.72 25 0 25 C0 16.75 0 8.5 0 0 Z " fill="#45BBD3" transform="translate(429,401)"/>
<path d="M0 0 C10.23 0 20.46 0 31 0 C31 10.56 31 21.12 31 32 C20.77 32 10.54 32 0 32 C0 21.44 0 10.88 0 0 Z " fill="#080707" transform="translate(302,596)"/>
<path d="M0 0 C10.23 0 20.46 0 31 0 C31 10.56 31 21.12 31 32 C20.77 32 10.54 32 0 32 C0 21.44 0 10.88 0 0 Z " fill="#080707" transform="translate(302,337)"/>
<path d="M0 0 C10.23 0 20.46 0 31 0 C31 10.56 31 21.12 31 32 C20.77 32 10.54 32 0 32 C0 21.44 0 10.88 0 0 Z " fill="#79AE48" transform="translate(428,201)"/>
<path d="M0 0 C10.23 0 20.46 0 31 0 C31 10.56 31 21.12 31 32 C20.77 32 10.54 32 0 32 C0 21.44 0 10.88 0 0 Z " fill="#7AAE49" transform="translate(591,169)"/>
<path d="M0 0 C10.23 0 20.46 0 31 0 C31 10.23 31 20.46 31 31 C20.77 31 10.54 31 0 31 C0 20.77 0 10.54 0 0 Z " fill="#070707" transform="translate(365,660)"/>
<path d="M0 0 C10.23 0 20.46 0 31 0 C31 10.23 31 20.46 31 31 C20.77 31 10.54 31 0 31 C0 20.77 0 10.54 0 0 Z " fill="#080707" transform="translate(334,628)"/>
<path d="M0 0 C10.23 0 20.46 0 31 0 C31 10.23 31 20.46 31 31 C20.77 31 10.54 31 0 31 C0 20.77 0 10.54 0 0 Z " fill="#070706" transform="translate(654,306)"/>
<path d="M0 0 C10.23 0 20.46 0 31 0 C31 10.23 31 20.46 31 31 C20.77 31 10.54 31 0 31 C0 20.77 0 10.54 0 0 Z " fill="#080707" transform="translate(334,306)"/>
<path d="M0 0 C10.23 0 20.46 0 31 0 C31 10.23 31 20.46 31 31 C20.77 31 10.54 31 0 31 C0 20.77 0 10.54 0 0 Z " fill="#050505" transform="translate(591,233)"/>
<path d="M0 0 C10.23 0 20.46 0 31 0 C31 10.23 31 20.46 31 31 C20.77 31 10.54 31 0 31 C0 20.77 0 10.54 0 0 Z " fill="#070706" transform="translate(397,233)"/>
<path d="M0 0 C10.23 0 20.46 0 31 0 C31 10.23 31 20.46 31 31 C20.77 31 10.54 31 0 31 C0 20.77 0 10.54 0 0 Z " fill="#568440" transform="translate(591,201)"/>
<path d="M0 0 C10.23 0 20.46 0 31 0 C31 10.23 31 20.46 31 31 C20.77 31 10.54 31 0 31 C0 20.77 0 10.54 0 0 Z " fill="#070706" transform="translate(528,201)"/>
<path d="M0 0 C10.23 0 20.46 0 31 0 C31 10.23 31 20.46 31 31 C20.77 31 10.54 31 0 31 C0 20.77 0 10.54 0 0 Z " fill="#060606" transform="translate(460,201)"/>
<path d="M0 0 C10.23 0 20.46 0 31 0 C31 10.23 31 20.46 31 31 C20.77 31 10.54 31 0 31 C0 20.77 0 10.54 0 0 Z " fill="#598541" transform="translate(397,201)"/>
<path d="M0 0 C10.23 0 20.46 0 31 0 C31 10.23 31 20.46 31 31 C20.77 31 10.54 31 0 31 C0 20.77 0 10.54 0 0 Z " fill="#070706" transform="translate(365,201)"/>
<path d="M0 0 C10.23 0 20.46 0 31 0 C31 10.23 31 20.46 31 31 C20.77 31 10.54 31 0 31 C0 20.77 0 10.54 0 0 Z " fill="#060606" transform="translate(559,169)"/>
<path d="M0 0 C10.23 0 20.46 0 31 0 C31 10.23 31 20.46 31 31 C20.77 31 10.54 31 0 31 C0 20.77 0 10.54 0 0 Z " fill="#070706" transform="translate(428,169)"/>
<path d="M0 0 C5.94 0 11.88 0 18 0 C18 4.95 18 9.9 18 15 C28.23 15 38.46 15 49 15 C49 23.58 49 32.16 49 41 C40.75 41 32.5 41 24 41 C24 35.39 24 29.78 24 24 C20.7 24 17.4 24 14 24 C14 20.7 14 17.4 14 14 C12.02 14 10.04 14 8 14 C8 12.02 8 10.04 8 8 C5.36 8 2.72 8 0 8 C0 5.36 0 2.72 0 0 Z " fill="#47B9D1" transform="translate(573,538)"/>
<path d="M0 0 C8.25 0 16.5 0 25 0 C25 8.58 25 17.16 25 26 C16.75 26 8.5 26 0 26 C0 23.03 0 20.06 0 17 C-10.56 17 -21.12 17 -32 17 C-32 14.03 -32 11.06 -32 8 C-21.44 8 -10.88 8 0 8 C0 5.36 0 2.72 0 0 Z " fill="#4AB9CF" transform="translate(619,502)"/>
<path d="M0 0 C9.9 0 19.8 0 30 0 C30 10.23 30 20.46 30 31 C20.1 31 10.2 31 0 31 C0 20.77 0 10.54 0 0 Z " fill="#060706" transform="translate(623,660)"/>
<path d="M0 0 C9.9 0 19.8 0 30 0 C30 10.23 30 20.46 30 31 C20.1 31 10.2 31 0 31 C0 20.77 0 10.54 0 0 Z " fill="#070606" transform="translate(686,338)"/>
<path d="M0 0 C8.25 0 16.5 0 25 0 C25 2.64 25 5.28 25 8 C34.9 8 44.8 8 55 8 C55 10.97 55 13.94 55 17 C45.1 17 35.2 17 25 17 C25 19.97 25 22.94 25 26 C16.75 26 8.5 26 0 26 C0 17.42 0 8.84 0 0 Z " fill="#48B8CD" transform="translate(375,502)"/>
<path d="M0 0 C10.56 0 21.12 0 32 0 C32 8.91 32 17.82 32 27 C21.44 27 10.88 27 0 27 C0 18.09 0 9.18 0 0 Z " fill="#76A84B" transform="translate(527,279)"/>
<path d="M0 0 C10.23 0 20.46 0 31 0 C31 8.91 31 17.82 31 27 C20.77 27 10.54 27 0 27 C0 18.09 0 9.18 0 0 Z " fill="#76A84D" transform="translate(460,279)"/>
<path d="M0 0 C0.66 0 1.32 0 2 0 C2.51046875 1.17755859 2.51046875 1.17755859 3.03125 2.37890625 C8.05320028 13.26425062 13.78827324 18.82155554 25 23 C25 23.66 25 24.32 25 25 C24.21496094 25.3403125 23.42992187 25.680625 22.62109375 26.03125 C11.73574938 31.05320028 6.17844446 36.78827324 2 48 C1.34 48 0.68 48 0 48 C-0.3403125 47.21496094 -0.680625 46.42992187 -1.03125 45.62109375 C-6.05320028 34.73574938 -11.78827324 29.17844446 -23 25 C-23 24.34 -23 23.68 -23 23 C-22.21496094 22.6596875 -21.42992187 22.319375 -20.62109375 21.96875 C-9.73574938 16.94679972 -4.17844446 11.21172676 0 0 Z " fill="#B0C0A2" transform="translate(967,944)"/>
<path d="M0 0 C1.32 0 2.64 0 4 0 C4 8.25 4 16.5 4 25 C1.36 25 -1.28 25 -4 25 C-4 30.61 -4 36.22 -4 42 C-12.58 42 -21.16 42 -30 42 C-30 33.42 -30 24.84 -30 16 C-20.1 16 -10.2 16 0 16 C0 10.72 0 5.44 0 0 Z " fill="#49B7CC" transform="translate(426,537)"/>
<path d="M0 0 C4.95 0 9.9 0 15 0 C15 14.52 15 29.04 15 44 C10.05 44 5.1 44 0 44 C0 29.48 0 14.96 0 0 Z " fill="#65874C" transform="translate(342,797)"/>
<path d="M0 0 C21.12 0 42.24 0 64 0 C64 31.68 64 63.36 64 96 C53.77 96 43.54 96 33 96 C33 106.56 33 117.12 33 128 C1.32 128 -30.36 128 -63 128 C-63 127.67 -63 127.34 -63 127 C-42.21 127 -21.42 127 0 127 C0 116.77 0 106.54 0 96 C0.33 95.67 0.66 95.34 1 95 C11.23 95 21.46 95 32 95 C32 74.21 32 53.42 32 32 C21.77 32 11.54 32 1 32 C1 42.56 1 53.12 1 64 C-19.79 64 -40.58 64 -62 64 C-62 63.67 -62 63.34 -62 63 C-41.54 63 -21.08 63 0 63 C0 52.77 0 42.54 0 32 C-10.23 32 -20.46 32 -31 32 C-31 31.67 -31 31.34 -31 31 C-20.77 31 -10.54 31 0 31 C0 20.77 0 10.54 0 0 Z M1 1 C1 10.9 1 20.8 1 31 C11.56 31 22.12 31 33 31 C33 52.12 33 73.24 33 95 C42.9 95 52.8 95 63 95 C63 63.98 63 32.96 63 1 C42.54 1 22.08 1 1 1 Z M1 96 C1 106.23 1 116.46 1 127 C11.23 127 21.46 127 32 127 C32 116.77 32 106.54 32 96 C21.77 96 11.54 96 1 96 Z " fill="#314325" transform="translate(590,137)"/>
<path d="M0 0 C0.33 0 0.66 0 1 0 C1 28.38 1 56.76 1 86 C29.38 86 57.76 86 87 86 C87 114.05 87 142.1 87 171 C110.43 171 133.86 171 158 171 C158 171.33 158 171.66 158 172 C134.24 172 110.48 172 86 172 C86 143.95 86 115.9 86 87 C57.95 87 29.9 87 1 87 C1 126.6 1 166.2 1 207 C0.67 207 0.34 207 0 207 C0 167.4 0 127.8 0 87 C-12.436875 87.185625 -24.87375 87.37125 -37.6875 87.5625 C-69.75940738 87.98622879 -101.80350387 87.99882194 -133.875 87.5625 C-134.8177969 87.54968616 -135.7605938 87.53687233 -136.7319603 87.5236702 C-148.15493335 87.36682563 -159.57757701 87.19277157 -171 87 C-171 86.67 -171 86.34 -171 86 C-114.57 86 -58.14 86 0 86 C0 57.62 0 29.24 0 0 Z " fill="#6E964F" transform="translate(171,0)"/>
<path d="M0 0 C0.84771973 0.00249756 1.69543945 0.00499512 2.56884766 0.00756836 C4.18605713 0.02122437 4.18605713 0.02122437 5.8359375 0.03515625 C10.9715625 0.06609375 10.9715625 0.06609375 16.2109375 0.09765625 C16.2109375 7.68765625 16.2109375 15.27765625 16.2109375 23.09765625 C8.6209375 23.09765625 1.0309375 23.09765625 -6.7890625 23.09765625 C-6.7890625 15.83765625 -6.7890625 8.57765625 -6.7890625 1.09765625 C-4.33631109 -0.12871945 -2.7384844 -0.01649689 0 0 Z " fill="#65854A" transform="translate(348.7890625,659.90234375)"/>
<path d="M0 0 C1.98 0 3.96 0 6 0 C6 21.45 6 42.9 6 65 C4.35 65 2.7 65 1 65 C0.12675009 61.24361695 -0.12163671 57.77743868 -0.11352539 53.92456055 C-0.11344986 52.72369308 -0.11337433 51.52282562 -0.11329651 50.28556824 C-0.10813522 48.99894791 -0.10297394 47.71232758 -0.09765625 46.38671875 C-0.09578956 45.04865064 -0.09436684 43.71058185 -0.09336853 42.37251282 C-0.08956314 38.8626413 -0.07974988 35.35281161 -0.06866455 31.84295654 C-0.05840777 28.25663824 -0.05386179 24.67031314 -0.04882812 21.08398438 C-0.03812572 14.05597247 -0.02107321 7.02798825 0 0 Z " fill="#68874E" transform="translate(683,775)"/>
<path d="M0 0 C7.59 0 15.18 0 23 0 C24 8 24 8 23 11 C15.41 11 7.82 11 0 11 C0 7.37 0 3.74 0 0 Z " fill="#65864C" transform="translate(573,797)"/>
<path d="M0 0 C4.62 0 9.24 0 14 0 C14 5.94 14 11.88 14 18 C9.38 18 4.76 18 0 18 C0 12.06 0 6.12 0 0 Z " fill="#C1252C" transform="translate(461,519)"/>
<path d="M0 0 C0.33 0 0.66 0 1 0 C1 10.23 1 20.46 1 31 C11.23 31 21.46 31 32 31 C32 31.33 32 31.66 32 32 C21.77 32 11.54 32 1 32 C1 42.23 1 52.46 1 63 C0.67 63 0.34 63 0 63 C0 52.77 0 42.54 0 32 C-9.9 32 -19.8 32 -30 32 C-30 52.79 -30 73.58 -30 95 C-51.12 95 -72.24 95 -94 95 C-94 94.67 -94 94.34 -94 94 C-73.21 94 -52.42 94 -31 94 C-31 73.21 -31 52.42 -31 31 C-20.77 31 -10.54 31 0 31 C0 20.77 0 10.54 0 0 Z " fill="#473824" transform="translate(653,628)"/>
<path d="M0 0 C0.33 0 0.66 0 1 0 C1 10.23 1 20.46 1 31 C11.23 31 21.46 31 32 31 C32 31.33 32 31.66 32 32 C21.77 32 11.54 32 1 32 C1 42.23 1 52.46 1 63 C32.02 63 63.04 63 95 63 C95 63.33 95 63.66 95 64 C63.65 64 32.3 64 0 64 C0 53.44 0 42.88 0 32 C-10.23 32 -20.46 32 -31 32 C-31 31.67 -31 31.34 -31 31 C-20.77 31 -10.54 31 0 31 C0 20.77 0 10.54 0 0 Z " fill="#384D2A" transform="translate(396,201)"/>
<path d="M0 0 C5.94 0 11.88 0 18 0 C18 5.28 18 10.56 18 16 C16.68 16 15.36 16 14 16 C14 15.34 14 14.68 14 14 C12.02 14 10.04 14 8 14 C8 12.02 8 10.04 8 8 C5.36 8 2.72 8 0 8 C0 5.36 0 2.72 0 0 Z " fill="#40B7D2" transform="translate(573,538)"/>
<path d="M0 0 C5.28 0 10.56 0 16 0 C16 3.3 16 6.6 16 10 C10.72 10 5.44 10 0 10 C0 6.7 0 3.4 0 0 Z " fill="#BC262C" transform="translate(460,546)"/>
<path d="M0 0 C5.28 0 10.56 0 16 0 C16 2.97 16 5.94 16 9 C10.72 9 5.44 9 0 9 C0 6.03 0 3.06 0 0 Z " fill="#34B2CB" transform="translate(460,537)"/>
<path d="M0 0 C4.62 0 9.24 0 14 0 C14 2.31 14 4.62 14 7 C9.38 7 4.76 7 0 7 C0 4.69 0 2.38 0 0 Z " fill="#46BDD4" transform="translate(461,512)"/>
<path d="M0 0 C2.97 0 5.94 0 9 0 C9 2.97 9 5.94 9 9 C2.84765625 9.09765625 2.84765625 9.09765625 1 9 C0 8 0 8 -0.09765625 6.15234375 C-0.06510417 4.1015625 -0.03255208 2.05078125 0 0 Z " fill="#B94454" transform="translate(472,379)"/>
<path d="M0 0 C2.97 0 5.94 0 9 0 C9 2.64 9 5.28 9 8 C6.03 8 3.06 8 0 8 C0 5.36 0 2.72 0 0 Z " fill="#B7393E" transform="translate(627,511)"/>
<path d="M0 0 C2.64 0 5.28 0 8 0 C8 2.97 8 5.94 8 9 C5.36 9 2.72 9 0 9 C0 6.03 0 3.06 0 0 Z " fill="#BA3B42" transform="translate(371,479)"/>
<path d="M0 0 C2.64 0 5.28 0 8 0 C8 2.97 8 5.94 8 9 C5.36 9 2.72 9 0 9 C0 6.03 0 3.06 0 0 Z " fill="#C33640" transform="translate(640,479)"/>
<path d="M0 0 C2.64 0 5.28 0 8 0 C8 2.97 8 5.94 8 9 C5.36 9 2.72 9 0 9 C0 6.03 0 3.06 0 0 Z " fill="#BF3947" transform="translate(537,379)"/>
<path d="M0 0 C2.64 0 5.28 0 8 0 C8 2.64 8 5.28 8 8 C5.36 8 2.72 8 0 8 C0 5.36 0 2.72 0 0 Z " fill="#C13938" transform="translate(606,562)"/>
<path d="M0 0 C2.64 0 5.28 0 8 0 C8 2.64 8 5.28 8 8 C5.36 8 2.72 8 0 8 C0 5.36 0 2.72 0 0 Z " fill="#C0363C" transform="translate(405,562)"/>
<path d="M0 0 C5.28 0 10.56 0 16 0 C16 1.32 16 2.64 16 4 C10.72 4 5.44 4 0 4 C0 2.68 0 1.36 0 0 Z " fill="#BD272C" transform="translate(542,519)"/>
<path d="M0 0 C2.64 0 5.28 0 8 0 C8 2.64 8 5.28 8 8 C5.36 8 2.72 8 0 8 C0 5.36 0 2.72 0 0 Z " fill="#C83138" transform="translate(383,511)"/>
<path d="M0 0 C2.64 0 5.28 0 8 0 C8 2.64 8 5.28 8 8 C5.36 8 2.72 8 0 8 C0 5.36 0 2.72 0 0 Z " fill="#C32E33" transform="translate(606,445)"/>
<path d="M0 0 C2.64 0 5.28 0 8 0 C8 2.64 8 5.28 8 8 C5.36 8 2.72 8 0 8 C0 5.36 0 2.72 0 0 Z " fill="#BE363C" transform="translate(405,445)"/>
<path d="M0 0 C2.64 0 5.28 0 8 0 C8 2.64 8 5.28 8 8 C5.36 8 2.72 8 0 8 C0 5.36 0 2.72 0 0 Z " fill="#C13036" transform="translate(573,409)"/>
<path d="M0 0 C2.64 0 5.28 0 8 0 C8 2.64 8 5.28 8 8 C5.36 8 2.72 8 0 8 C0 5.36 0 2.72 0 0 Z " fill="#BF343A" transform="translate(437,409)"/>
<path d="M0 0 C1.98 0 3.96 0 6 0 C6 3.3 6 6.6 6 10 C3.69 10 1.38 10 -1 10 C-0.67 6.7 -0.34 3.4 0 0 Z " fill="#6E9351" transform="translate(597,831)"/>
<path d="M0 0 C2.64 0 5.28 0 8 0 C8 1.65 8 3.3 8 5 C5.36 5 2.72 5 0 5 C0 3.35 0 1.7 0 0 Z " fill="#BC2928" transform="translate(573,546)"/>
<path d="M0 0 C2.97 0 5.94 0 9 0 C5 2 5 2 3 2 C1.85185003 4.29629994 1.69230191 6.07698086 1.4375 8.625 C1.35371094 9.44226563 1.26992188 10.25953125 1.18359375 11.1015625 C1.12300781 11.72804688 1.06242188 12.35453125 1 13 C0.67 13 0.34 13 0 13 C0 8.71 0 4.42 0 0 Z " fill="#39C4D9" transform="translate(575,479)"/>
</svg>
